<svg xmlns="http://www.w3.org/2000/svg" xmlns:xlink="http://www.w3.org/1999/xlink" viewBox="0 0 698 698"><defs><style>.cls-1{fill:none;}.cls-2{opacity:0.5;}.cls-3{fill:url(#Dégradé_sans_nom_8);}.cls-4{fill:url(#Dégradé_sans_nom_29);}.cls-5{fill:#f5f5f5;}.cls-6{clip-path:url(#clip-path);}.cls-7{fill:#333;}.cls-8{fill:#4d8af0;}.cls-9{fill:#62a6b1;}.cls-10{opacity:0.1;isolation:isolate;}.cls-11{fill:#fdb797;}.cls-12{fill:#2f2e41;}.cls-13{clip-path:url(#clip-path-2);}</style><linearGradient id="Dégradé_sans_nom_8" x1="349" y1="-0.11" x2="349" y2="697.89" gradientTransform="matrix(1, 0, 0, -1, 0, 697.89)" gradientUnits="userSpaceOnUse"><stop offset="0" stop-color="gray" stop-opacity="0.25"/><stop offset="0.54" stop-color="gray" stop-opacity="0.12"/><stop offset="1" stop-color="gray" stop-opacity="0.1"/></linearGradient><linearGradient id="Dégradé_sans_nom_29" x1="349" y1="-0.11" x2="349" y2="697.89" gradientTransform="matrix(1, 0, 0, -1, 0, 697.89)" gradientUnits="userSpaceOnUse"><stop offset="0" stop-color="#3d4949" stop-opacity="0.25"/><stop offset="0.54" stop-color="gray" stop-opacity="0.12"/><stop offset="1" stop-color="gray" stop-opacity="0.1"/></linearGradient><clipPath id="clip-path"><circle class="cls-1" cx="349.68" cy="346.77" r="341.64"/></clipPath><clipPath id="clip-path-2"><path class="cls-1" d="M349.68,16.47c188.68,0,341.64,141.62,341.64,330.3s-153,341.64-341.64,341.64S8,535.45,8,346.77,161,16.47,349.68,16.47Z"/></clipPath></defs><g id="Base_visage_Arthur" data-name="Base visage Arthur"><g class="cls-2"><circle class="cls-3" cx="349" cy="349" r="349"/></g><g class="cls-2"><circle class="cls-4" cx="349" cy="349" r="349"/></g><circle class="cls-5" cx="349.68" cy="346.77" r="341.64"/><g class="cls-6"><circle class="cls-7" cx="336.71" cy="322.89" r="149.6"/><path class="cls-8" d="M482.19,533.7H191.6L164.48,641.63s-15.92,50,3.79,72,204.94,72,341,3.53a131.31,131.31,0,0,0,3.8-89.94c-15.5-50.37-3.8-3.53-3.8-3.53Z"/><path class="cls-8" d="M486.07,533.7H195.47L168.35,641.63s-15.92,50,3.8,72,204.94,72,341,3.53a131.31,131.31,0,0,0,3.79-89.94c-15.49-50.37-3.79-3.53-3.79-3.53Z"/><path class="cls-9" d="M483.9,533.7H193.31s-89.54,6.81-65.87,158.3a130.24,130.24,0,0,0,42.62,25.18l.85-2.67c23.7,22.2,202.54,69.18,336.31,4.42l2.39,7.58c8.77-3.15,21.91,3.93,29.69-.89,6.3-3.9,5.76-17.82,10.47-33.62C573.44,540.51,483.9,533.7,483.9,533.7Z"/><path class="cls-10" d="M284,447.13H388.35v83.4a52.19,52.19,0,0,1-52.18,52.19h0A52.19,52.19,0,0,1,284,530.53v-83.4Z"/><path class="cls-11" d="M284,443.25H388.35v83.5a52.18,52.18,0,0,1-52.18,52.18h0A52.18,52.18,0,0,1,284,526.75v-83.5Z"/><path class="cls-10" d="M284.32,498a150.1,150.1,0,0,0,104.37.27V485.45H284.32Z"/><circle class="cls-11" cx="336.71" cy="355.36" r="149.6"/><path class="cls-10" d="M193.66,302.42H479S454.59,187.23,346.74,194.57,193.66,302.42,193.66,302.42Z"/><path class="cls-7" d="M193.66,298.53H479S454.59,183.35,346.74,190.68,193.66,298.53,193.66,298.53Z"/><ellipse class="cls-11" cx="190.18" cy="348.98" rx="13.92" ry="26.09"/><ellipse class="cls-11" cx="482.43" cy="348.98" rx="13.92" ry="26.09"/><path class="cls-7" d="M215.83,222.33a53,53,0,0,1,19.23-28.51c7.3-5,16-7.51,24.39-10.44a186.15,186.15,0,0,0,35.44-17c12.69-7.82,24.6-17.23,38.58-22.41,23.88-8.91,50.79-4.1,75.62,2.28a63.71,63.71,0,0,1,17.67,6.58A66.92,66.92,0,0,1,442.45,168l39.36,47.55a75.22,75.22,0,0,1,9.79,13.65,47.47,47.47,0,0,1,4.47,15.55,40.73,40.73,0,0,1-4.19,25.51c-6.83,11.36-20.47,17.06-33.57,17.6s-26.06-3.41-38.71-7c-40.93-11.94-82.07-23.06-124.33-28a351.24,351.24,0,0,0-63.28-2c-6.61.44-15.38,3.41-19.4-3.41C209.07,241.74,214,228.1,215.83,222.33Z"/></g><circle class="cls-11" cx="338.93" cy="308.89" r="141.52"/><path class="cls-12" d="M231.39,169.43l-25.62-12.65s62-49.66,139.08-36.24L325.42,96.29s55.52-13.53,98.43,42.78c22.56,29.6,48.6,64.34,63.09,101.83l28.59,3.15L501,266.6l39.12,28.46-42.38-9a121.11,121.11,0,0,1-10.87,61.35L474.19,373S443.93,291.09,445,281.39l-2.68,24.26S418,280.87,419.65,266.31l-16.44,15.38-4.33-27.49L306.16,271l17-20.23-56.61,1.13,24.78-24.29s-66.56,24.59-71.93,51-40.66,56.91-40.66,56.91l-11.88-25.87S157,198.07,231.39,169.43Z"/></g><g id="Arthur"><g class="cls-13"><g id="Supri"><polygon points="111.91 688.53 111.92 688.46 111.91 688.46 111.91 688.53"/><path d="M566,617.53c-3.21-22.14-8.07-51.34-28.77-66.48-20.41-14.91-53.79-17.4-78.91-20.09-16.71-1.8-33.51-2.7-50.34-3.05-10.72-.25-21.92-.9-32.88-.51-.06-2.42-.15-4.84-.13-7.26,0-5,.18-10-.19-14.94,1.5-.28,3-.61,4.46-1,12-1.2,24.59-5.38,34.9-9.38,12.86-5,24.89-12.22,33.55-22.19,8.08-9.33,12.2-20.68,15.4-32,3.76-13.22,6.93-36,8.28-49.64,6.72,3.23,17.13-2.34,22.15-7.17,11.25-10.82,15.59-28.8,15.48-43.13-.07-9.46-4-25.92-16.49-28.24,3.15-20.18,2.39-30.16,1.88-50.38-.51-19.78-.85-40.65-9.41-59.23C471.26,173,435.9,160.38,401.21,163.8c3.05-5.4,5.11-11.34,8.57-16.59,4.2-6.36,9.68-11.71,14.66-17.54.57-.21,1.15-.37,1.71-.6,1.38-.57.57-2.23-.72-2.29-.55,0-1.13,0-1.71,0a1.65,1.65,0,0,0-1,0c-9.47,0-20.23,2.36-29.84,5.93,5.76-5.08,12.7-9.08,18.33-14.16.42-.09.85-.14,1.27-.24a1.22,1.22,0,0,0-.37-2.4c-22-.25-45.29-.15-67.15,2.26-12.89,1.42-27.06,4-38.24,10.48,3.14-4.41,6.06-8.94,9.36-13.25,4.77-6.24,11.06-11,16.06-17a1.11,1.11,0,0,0,.16-1.12,2.32,2.32,0,0,0-2.74-2.76,190.12,190.12,0,0,0-100.42,38.82c-11.73,9.14-26.51,21.59-32.67,34.78-5.59,12,3.87,27.07,13,37.1-18.58,2.21-28.1,21.25-30.09,36.31-3.34,25.27-1.7,41.68,3.88,66.77-.42,0-.8-.05-1.23,0-12.65,1.23-17.32,14.3-18.67,23.76-2.12,14.9-1.08,34.77,10,47.09,7.28,8.1,20.59,12.9,30.6,7.81-2.52,30.07,11.79,74.15,34.35,95.93,16.24,15.68,45.85,30,72.18,28.91-.28,3.57-.07,7.19-.08,10.76,0,1.45-.08,2.93-.14,4.39-23.71,1.44-47.57,5.78-70.42,10.58-27.13,5.7-57.06,11.89-81.59,24.09-21.52,10.71-28.59,30.17-34.91,50.27-7.11,22.58-12.13,47.22-10.93,70.89l-.43,5.69.17,0,.71.66c0,.2.09.4.11.6a1.23,1.23,0,0,0,1.59,1c25.67,23.14,60.65,36.89,96.09,43.55,46.37,8.69,95,14.88,142.43,14.59,70.61-.43,149.34-16.38,207.84-54.69l5.17-3.58,1.33-8c3.07-21.45,1.67-44.42-1.32-65.06m-182.55-84.2c8.33.43,16.77.51,25.17.6-.92,7.24-.16,14.45-1.47,21.76A122.57,122.57,0,0,1,401,577.06a201.8,201.8,0,0,1-16.83,35c-4.38-6.28-11.66-11.59-16.93-17-5-5.12-10.65-13.44-18.83-14.59,17.32-9.21,30.57-30.89,35.07-47.14M358.1,594.41c-.64,4-.57,8-2.2,11.8s-4.56,5.81-8,7.65a15,15,0,0,0-6.44-1.31c-5.47-.21-11.76,0-17,1.58l-.05,0c-4.32-3.71-7.56-6.92-8.36-12.75-.72-5.24.77-10.34.75-15.54a42.15,42.15,0,0,1,12.63-3.3,20.66,20.66,0,0,0,15.73.44,2.06,2.06,0,0,0,1-.68,1.54,1.54,0,0,0,.41.74c3.95,3.76,7.78,7.55,11.59,11.39M213.36,209.2c1.66,1.12,4.13-.76,3-2.49-.11-.16-.23-.32-.33-.49a2,2,0,0,0-.41-.6c-4.73-7.18-10.3-14.29-13.13-22.28-3.15-8.91-.51-14.18,5.18-21.22a159.21,159.21,0,0,1,34.47-31.29c23.56-16,50.89-25.87,79.92-30a65.65,65.65,0,0,0-10,11.11c-4.52,5.93-11,13.56-11.69,21-.1.07-.21.13-.29.2-1.34,1.14.36,2.71,1.84,2.13C320.48,127.91,337,123.1,357.49,122c13.92-.75,28.43-.12,42.43-1.65a89.78,89.78,0,0,0-7.31,5.42c-2.84,2.29-5.35,4.88-8.14,7.22-3,2.47-6.4,4.36-9.11,7-.86.85-.31,2,1.08,2,1,0,2-.72,3-.72h0c8.49,0,16.59-4.08,24.87-6.25,3.36-.88,6.76-1.62,10.14-2.43-10.17,8.95-19.24,22.92-18.36,34.16a1.6,1.6,0,0,0,2.87.69c.13-.2.24-.42.39-.62,16.52,3.15,33.37,2.72,49.1,9,19,7.62,29.82,23.14,34.68,40.69,9.69,35,3.2,60.41,3.45,96-6.49,1.25-11.82,6.34-15.4,12.2-1.27-16.4-5.9-21.65-7.3-38-1.52-17.84-.18-36.11-2-53.9,2.24-8.25-4.55-13.45-13.15-16-16.1-4.68-35-5.82-51.81-6.51a324.48,324.48,0,0,0-51.78,2c-15.64,1.86-36.77,3.51-50.78,11.22a155.48,155.48,0,0,1,7.51-16.86c3.17-5.85,6.14-13.25,11.07-18.14.26-.17.52-.32.77-.5,1.65-1.13.77-3.54-1.46-3.09-16.08,3.19-32.39,18.84-38.48,33.26-1-8.61-4.63-17.8-6.24-25.79-.44-2.18-4.25-2-4.8,0a159.52,159.52,0,0,0-3.91,19c-.75,5.39-2.42,11.63-.86,17a11.79,11.79,0,0,0-.13,1.32,63.87,63.87,0,0,1-15.53-5.17c-2.65-1.3-5.77-2.78-8.74-4.45a.8.8,0,0,0,0-.53c-.7-.28-1.41-.56-2.11-.87l-.14.06c-.2-.12-.36-.26-.54-.39-2.41-1.13-4.75-2.37-7.05-3.67-.07,0-.1-.09-.16-.13a1.41,1.41,0,0,0-.66,1.4,10.94,10.94,0,0,0,3.62,5.34,34.65,34.65,0,0,0-6,5.53c-.4.45-.83.95-1.3,1.47a2.47,2.47,0,0,0-.68.49c-12.07,12.45-11.24,36.67-12.66,52.16-1.68,18.2-3.14,26.56-.82,45.13-3.39-7.68-8.19-15.3-16.43-17.41-3.34-20.06-4.62-28.66-4.26-48.95.38-21.38,3.82-43,29-50.69m96.75,323.19,5.6-.86.23-4.92c0-1.36,0-2.72,0-4.06a59.18,59.18,0,0,0-.66-11.12,53.81,53.81,0,0,0,11.52-2.61c2.11-.72,1.83-3.38-.54-3.53-16.16-1.06-30.88.5-46.72-4.44a92.72,92.72,0,0,1-39.72-24.47,108.93,108.93,0,0,1-23.69-39.57c-4.87-14.13-5.52-37.79-8.76-52.13a19.05,19.05,0,0,0,1.69-1.57c1.26-1.34-.29-3.22-2.09-2.42-30.08,13.36-38.66-21.35-38.1-40.56.28-9.27,3-32.76,21.93-25.37,8.43,3.29,12.08,14.23,15.89,21.44.06.27.1.54.16.8a1,1,0,0,0,.82.79c.64.56,1.88.09,1.7-.74.07-.13.19-.23.2-.38,1.6-19.33,0-27.52,1.66-46.93,1.6-18.95,2.43-39.44,10.74-57.15a26.76,26.76,0,0,1,2.38-3c1.8-1.87,3.78-3.57,5.67-5.34a80.94,80.94,0,0,0,10.31,5.68c5.68,2.72,13.21,6.43,19.55,4.06a2.31,2.31,0,0,0,2-.78c.08-.11.11-.23.18-.34a1.43,1.43,0,0,0,.4-.73,13.68,13.68,0,0,0,.52-4.78c0-1.33,0-2.63-.09-3.93.36-2.5.45-5.07.81-7.57.4-2.82.88-5.63,1.36-8.44,1.05,6.87,2.42,13.78,5.8,19.31.1.17.26.22.39.32,1.85-1.75,3.71-3.49,5.62-5.2,4.22-6.51,8.2-12.82,14.16-18.41a63.11,63.11,0,0,1,10.38-7.63c-1.14,2.1-2.14,4.2-3.09,5.87-4.54,8-9.19,16.44-10.78,25.31-.54,3,3.89,4.12,5.05,1.25l.56-1.4c11-.2,22.21-4.41,33-6.35a320,320,0,0,1,84.15-3.92c10.85.94,46,1.45,46,16.84h0c0,17.35-.5,36.11,1,53.35,1.56,18.1,2.72,28.23,10.2,45.28a27.47,27.47,0,0,0-1.27,5.76c-.22,1.71,2.54,1.68,3.15.37,1.92-4.13,4.71-10.84,8.68-13.93,3.67-2.85,15.22-4,19.35-1.22,7,4.71,5.41,20.1,4.52,26.7-1.7,12.67-10.15,41.83-30.14,35.51a1.63,1.63,0,0,0-1.88-.63c-.15-.06-.28-.08-.43-.14-1.65-.72-3,.69-2.36,2.1a10.6,10.6,0,0,0,.93,1.55c-7.3,23.74-8,60.59-25.23,80.67-9.35,10.87-22.72,18.07-37,22.81-11.91,4-25.38,4.89-36.78,9.72a55.93,55.93,0,0,0-9.7,2.88c-1.27.54-.52,2.13.67,2.2a54.78,54.78,0,0,0,10.2-.46,69.36,69.36,0,0,0-1.85,21.89l.51,4.37,6.26.59c1.21.1,2.43.16,3.63.24-5.74,8.11-9.61,17.32-15.58,25.37s-13.36,13.93-20.87,20.39c-24.53-3.25-26.81-28.32-32.62-46.31l.47-.07m-4.18.63c-1.09,12.56,4.89,34.11,16.53,44.83-7.64,1.76-14.52,6.26-20.61,10.66S290.36,598,287,604.09c-3.69-11-9.31-21.47-12.56-32.62a104.72,104.72,0,0,1-3.92-20.22c-.38-4.4,0-8.52-.56-12.66,11.94-1.93,23.94-3.75,36-5.57M303.6,741.31c-29.18-2.36-58.25-6.6-86.75-11.63a230.69,230.69,0,0,1-49.64-14.51,2.08,2.08,0,0,0,.19-.89c-.44-34.7-1.23-69.53-4.24-104.15-.13-1.48-2.58-1.52-2.61,0-.87,34.38.47,68.84,2.15,103.19A238.44,238.44,0,0,1,116,685.43c2.32-23,4.64-45.65,11.52-68.13,3.36-11,7.08-22.49,12.94-32.67,6.86-11.9,19.29-18.49,32.84-23.25,30-10.53,60.77-16.82,91.89-22-2.81,9.2.11,20.53,2.31,29.36,3.47,13.82,8.73,28.8,16.83,41.06a1.38,1.38,0,0,0,.27.27c-.05.15-.11.28-.15.42-.32,1.2,1.44,1.83,2.19.82l.69-.9a1.87,1.87,0,0,0,1.07-1.38c6.07-7.69,14.19-15.68,23.64-20.89-4.33,10.38-3.28,26.39,8.87,30-8,19.36-12.07,40.25-14.9,60.65-2.77,19.9-6.16,42.43-2.37,62.5m51.79,2c-15.7.15-31.46-.49-47.21-1.65,2.63-20,1-40.54,3.66-60.66,2.8-21.12,8.44-41.53,12.9-62.34a2.08,2.08,0,0,0,1.21-.93c5.85.22,12.55-.93,18.08.5.08,0,.1.1.18.14a9.89,9.89,0,0,0,1.37.36,13.39,13.39,0,0,1,1.66.67,2.54,2.54,0,0,0,.45.13c-.48,19.86,6.19,41.17,9.6,60.71,3.63,20.75,5.62,42.25,10.83,62.74-4.24.16-8.48.29-12.73.33m205.4-56.59a394.24,394.24,0,0,1-48.48,25.48c2.42-16.12,2.62-32.71,3.53-48.95,1-18.26,2.71-36.53,3.28-54.81,0-1.19-2.17-1.51-2.39-.28-2.94,16.79-4.46,33.79-6.17,50.71-1.83,18.06-4.17,36.77-3.08,54.9a1.71,1.71,0,0,0,.13.44,325.39,325.39,0,0,1-30.72,11.11A427.12,427.12,0,0,1,373.7,742.7c-1.29-19.87-6.08-40-9.48-59.63-3.61-20.86-4.84-44.7-13.2-64.5a16.75,16.75,0,0,0,9.06-6.92,21.37,21.37,0,0,0,3.47-11.71l.12.13c5.44,5.62,11.35,13.4,18.95,16.92a.61.61,0,0,0,.17.07c.31.15.59.33.92.46,1.12.44,2.86-.27,2.65-1.5,10.32-5.1,15.08-23.41,18.46-31.8,5.73-14.27,14-35,8.27-50.23,8.83.11,17.61.27,26.17.91,27.86,2.07,61.7,4.26,86.79,16.34,26.27,12.64,31.37,47.36,34.36,71.25,2.69,21.57.51,42.78.38,64.19"/><path d="M195.53,342.28c-1.19-3.78-2.66-9.94-6.89-12-8.34-4.13-16.42,6.69-13.4,13.18.62,1.35,3,1.67,3.46,0,.66-2.24,1.89-5.44,4.33-6.69,3.35-1.72,5.2,2.84,6.58,5,3.25,5.14,5.08,10.62,6.81,16.26a.9.9,0,0,0,1.73-.2,50.6,50.6,0,0,0-2.62-15.53"/><path d="M482.77,333.3c-4.17,2.75-5.71,9-7.14,13.08-2.18,6.2-4,12.88-3.9,19.42,0,1.63,2.66,1.95,3.19.38,1.83-5.49,3-11.07,5.25-16.47.91-2.19,2.26-7.71,4.53-9.18,4.7-3,5,2,7,4.37a1.29,1.29,0,0,0,2.07,0c3.64-5.78-3.16-16.77-11-11.6"/><path d="M282.09,293c-4.45-9.1-9.82-19.74-23.09-15.77-6.79,2-20.3,8.7-18.62,16.33.25,1.15,2,1.41,2.83.67,4.27-3.74,10.49-7.05,15.8-9.47,10.86-5,15.33,2.92,21.55,9.29a1,1,0,0,0,1.53-1.05"/><path d="M412.87,281.18c-10.41-.33-21.54,8.45-28.17,14.67-.89.84.28,2.36,1.43,1.66,6.37-3.91,13.92-7.87,21.6-9.2,9.75-1.71,10.73,5.72,17.09,9.84a1.9,1.9,0,0,0,2.8-1.42c1-7.25-6.42-15.28-14.75-15.55"/><path d="M279.21,316.54c-2.41-4.88-11.7-3.8-12.67,1.09-2.38,3.59-3,9.6-3.2,12.6-.24,3.27-1.08,9,1.89,11.63,2.56,2.23,6,1.19,8.18-.9,3.07-2.89,4.59-7.36,5.35-11.18.72-3.63,2.18-9.75.45-13.24m-9.89,7.59c.34-2.24.91-4.52,1.89-5.75a1.45,1.45,0,0,1,2.27.81,2.11,2.11,0,0,1,.53,2.35,25.07,25.07,0,0,1-.29,4.57c-.06.54-.16,1.07-.25,1.6-.48-.34-1-.63-1.61-1a11.25,11.25,0,0,1-2.54-2.57"/><path d="M407.86,316.54c-2.42-4.88-11.7-3.8-12.67,1.09-2.39,3.59-3,9.6-3.21,12.6-.23,3.27-1.08,9,1.89,11.63,2.56,2.23,6,1.19,8.18-.9,3.08-2.89,4.6-7.36,5.35-11.18.72-3.63,2.18-9.75.46-13.24M398,324.13c.34-2.24.91-4.52,1.88-5.75,1.07-.51,1.85-.28,2.28.81a2.12,2.12,0,0,1,.52,2.35,26,26,0,0,1-.28,4.57c-.06.54-.17,1.07-.24,1.6-.5-.34-1.06-.63-1.63-1a11,11,0,0,1-2.53-2.57"/><path d="M344.61,404.64c-6.26,5.49-16.85,6.82-23.76,1.14-6.45-5.28-4.37-11.27-3.65-17.85,1.35-12.31,4.18-24.34,7.18-36.4.27-1.09-1.48-1.52-1.88-.46a196.56,196.56,0,0,0-9.38,36.37c-.87,5.27-4.65,15.24-.83,19.95,2.74,3.36,13.52,6.29,18.28,6.82,7.43.82,12.93-2.35,16.53-7.86.91-1.39-1.2-2.85-2.49-1.71"/><path d="M376.19,441.29c-12.38,1.39-24.72,3.16-37,4.6-11.07,1.31-22.24,2.36-33.33,3.75l-3.45.43,1.28,3.61c1.79,4.69,4.32,9.24,9,11,8.89,3.35,22.81,1,32-.37,17.1-2.52,30.59-7.54,34.94-19.58l1-4Zm-1.79,5.21c-5.06,10-19.8,11.86-30.73,13.26-7,.9-15.42,2.14-22.5,1.23-6.86-.89-10.31-3.75-13.07-7.69,12-1,24-2.55,35.91-4,10.24-1.22,20.55-2.38,30.79-3.87-.15.34-.23.69-.4,1"/></g></g></g></svg>