<?xml version="1.0" encoding="UTF-8"?>
<svg xmlns="http://www.w3.org/2000/svg" xmlns:xlink="http://www.w3.org/1999/xlink" width="375pt" height="374.999991pt" viewBox="0 0 375 374.999991" version="1.2">
<defs>
<filter id="alpha" filterUnits="objectBoundingBox" x="0%" y="0%" width="100%" height="100%">
  <feColorMatrix type="matrix" in="SourceGraphic" values="0 0 0 0 1 0 0 0 0 1 0 0 0 0 1 0 0 0 1 0"/>
</filter>
<mask id="mask0">
  <g filter="url(#alpha)">
<rect x="0" y="0" width="375" height="374.999991" style="fill:rgb(0%,0%,0%);fill-opacity:0.2;stroke:none;"/>
  </g>
</mask>
<clipPath id="clip2">
  <path d="M 0.28125 0.0390625 L 328.601562 0.0390625 L 328.601562 328.359375 L 0.28125 328.359375 Z M 0.28125 0.0390625 "/>
</clipPath>
<clipPath id="clip1">
  <rect x="0" y="0" width="329" height="329"/>
</clipPath>
<g id="surface5" clip-path="url(#clip1)">
<g clip-path="url(#clip2)" clip-rule="nonzero">
<path style=" stroke:none;fill-rule:nonzero;fill:rgb(0%,6.269836%,5.879211%);fill-opacity:1;" d="M 328.5625 164.21875 C 328.5625 166.902344 328.496094 169.585938 328.363281 172.269531 C 328.234375 174.949219 328.035156 177.628906 327.773438 180.300781 C 327.507812 182.972656 327.179688 185.636719 326.785156 188.292969 C 326.394531 190.949219 325.933594 193.59375 325.410156 196.226562 C 324.886719 198.859375 324.296875 201.476562 323.644531 204.082031 C 322.992188 206.6875 322.277344 209.273438 321.496094 211.84375 C 320.71875 214.414062 319.875 216.960938 318.972656 219.488281 C 318.066406 222.019531 317.101562 224.523438 316.074219 227.003906 C 315.046875 229.484375 313.957031 231.9375 312.8125 234.363281 C 311.664062 236.792969 310.457031 239.1875 309.191406 241.558594 C 307.925781 243.925781 306.601562 246.261719 305.222656 248.5625 C 303.839844 250.867188 302.40625 253.132812 300.914062 255.367188 C 299.421875 257.597656 297.875 259.792969 296.277344 261.949219 C 294.675781 264.105469 293.023438 266.222656 291.320312 268.300781 C 289.617188 270.375 287.867188 272.40625 286.0625 274.394531 C 284.257812 276.386719 282.410156 278.328125 280.507812 280.226562 C 278.609375 282.128906 276.667969 283.976562 274.675781 285.78125 C 272.6875 287.585938 270.65625 289.335938 268.582031 291.039062 C 266.503906 292.742188 264.386719 294.394531 262.230469 295.996094 C 260.074219 297.59375 257.878906 299.140625 255.648438 300.632812 C 253.414062 302.125 251.148438 303.558594 248.84375 304.941406 C 246.542969 306.320312 244.207031 307.644531 241.839844 308.910156 C 239.46875 310.175781 237.074219 311.382812 234.644531 312.53125 C 232.21875 313.675781 229.765625 314.765625 227.285156 315.792969 C 224.804688 316.820312 222.300781 317.785156 219.769531 318.691406 C 217.242188 319.59375 214.695312 320.4375 212.125 321.214844 C 209.554688 321.996094 206.96875 322.710938 204.363281 323.363281 C 201.757812 324.015625 199.140625 324.605469 196.507812 325.128906 C 193.875 325.652344 191.230469 326.113281 188.574219 326.503906 C 185.917969 326.898438 183.253906 327.226562 180.582031 327.492188 C 177.910156 327.753906 175.230469 327.953125 172.550781 328.082031 C 169.867188 328.214844 167.183594 328.28125 164.5 328.28125 C 161.816406 328.28125 159.132812 328.214844 156.449219 328.082031 C 153.769531 327.953125 151.089844 327.753906 148.417969 327.492188 C 145.746094 327.226562 143.082031 326.898438 140.425781 326.503906 C 137.769531 326.113281 135.125 325.652344 132.492188 325.128906 C 129.859375 324.605469 127.242188 324.015625 124.636719 323.363281 C 122.03125 322.710938 119.445312 321.996094 116.875 321.214844 C 114.304688 320.4375 111.757812 319.59375 109.230469 318.691406 C 106.699219 317.785156 104.195312 316.820312 101.714844 315.792969 C 99.234375 314.765625 96.78125 313.675781 94.355469 312.53125 C 91.925781 311.382812 89.53125 310.175781 87.160156 308.910156 C 84.792969 307.644531 82.457031 306.320312 80.15625 304.941406 C 77.851562 303.558594 75.585938 302.125 73.351562 300.632812 C 71.121094 299.140625 68.925781 297.59375 66.769531 295.996094 C 64.613281 294.394531 62.496094 292.742188 60.417969 291.039062 C 58.34375 289.335938 56.3125 287.585938 54.324219 285.78125 C 52.332031 283.976562 50.390625 282.128906 48.492188 280.226562 C 46.589844 278.328125 44.742188 276.386719 42.9375 274.394531 C 41.132812 272.40625 39.382812 270.375 37.679688 268.300781 C 35.976562 266.222656 34.324219 264.105469 32.722656 261.949219 C 31.125 259.792969 29.578125 257.597656 28.085938 255.367188 C 26.59375 253.132812 25.160156 250.867188 23.777344 248.5625 C 22.398438 246.261719 21.074219 243.925781 19.808594 241.558594 C 18.542969 239.1875 17.335938 236.792969 16.1875 234.363281 C 15.042969 231.9375 13.953125 229.484375 12.925781 227.003906 C 11.898438 224.523438 10.933594 222.019531 10.027344 219.488281 C 9.125 216.960938 8.28125 214.414062 7.503906 211.84375 C 6.722656 209.273438 6.007812 206.6875 5.355469 204.082031 C 4.703125 201.476562 4.113281 198.859375 3.589844 196.226562 C 3.066406 193.59375 2.605469 190.949219 2.214844 188.292969 C 1.820312 185.636719 1.492188 182.972656 1.226562 180.300781 C 0.964844 177.628906 0.765625 174.949219 0.636719 172.269531 C 0.503906 169.585938 0.4375 166.902344 0.4375 164.21875 C 0.4375 161.535156 0.503906 158.851562 0.636719 156.167969 C 0.765625 153.488281 0.964844 150.808594 1.226562 148.136719 C 1.492188 145.464844 1.820312 142.800781 2.214844 140.144531 C 2.605469 137.488281 3.066406 134.84375 3.589844 132.210938 C 4.113281 129.578125 4.703125 126.960938 5.355469 124.355469 C 6.007812 121.75 6.722656 119.164062 7.503906 116.59375 C 8.28125 114.023438 9.125 111.476562 10.027344 108.949219 C 10.933594 106.417969 11.898438 103.914062 12.925781 101.433594 C 13.953125 98.953125 15.042969 96.5 16.1875 94.074219 C 17.335938 91.644531 18.542969 89.25 19.808594 86.878906 C 21.074219 84.511719 22.398438 82.175781 23.777344 79.875 C 25.160156 77.570312 26.59375 75.304688 28.085938 73.070312 C 29.578125 70.839844 31.125 68.644531 32.722656 66.488281 C 34.324219 64.332031 35.976562 62.214844 37.679688 60.136719 C 39.382812 58.0625 41.132812 56.03125 42.9375 54.042969 C 44.742188 52.050781 46.589844 50.109375 48.492188 48.210938 C 50.390625 46.308594 52.332031 44.460938 54.324219 42.65625 C 56.3125 40.851562 58.34375 39.101562 60.417969 37.398438 C 62.496094 35.695312 64.613281 34.042969 66.769531 32.441406 C 68.925781 30.84375 71.121094 29.296875 73.351562 27.804688 C 75.585938 26.3125 77.851562 24.878906 80.15625 23.496094 C 82.457031 22.117188 84.792969 20.792969 87.160156 19.527344 C 89.53125 18.261719 91.925781 17.054688 94.355469 15.90625 C 96.78125 14.761719 99.234375 13.671875 101.714844 12.644531 C 104.195312 11.617188 106.699219 10.652344 109.230469 9.746094 C 111.757812 8.84375 114.304688 8 116.875 7.222656 C 119.445312 6.441406 122.03125 5.726562 124.636719 5.074219 C 127.242188 4.421875 129.859375 3.832031 132.492188 3.308594 C 135.125 2.785156 137.769531 2.324219 140.425781 1.933594 C 143.082031 1.539062 145.746094 1.210938 148.417969 0.945312 C 151.089844 0.683594 153.769531 0.484375 156.449219 0.355469 C 159.132812 0.222656 161.816406 0.15625 164.5 0.15625 C 167.183594 0.15625 169.867188 0.222656 172.550781 0.355469 C 175.230469 0.484375 177.910156 0.683594 180.582031 0.945312 C 183.253906 1.210938 185.917969 1.539062 188.574219 1.933594 C 191.230469 2.324219 193.875 2.785156 196.507812 3.308594 C 199.140625 3.832031 201.757812 4.421875 204.363281 5.074219 C 206.96875 5.726562 209.554688 6.441406 212.125 7.222656 C 214.695312 8 217.242188 8.84375 219.769531 9.746094 C 222.300781 10.652344 224.804688 11.617188 227.285156 12.644531 C 229.765625 13.671875 232.21875 14.761719 234.644531 15.90625 C 237.074219 17.054688 239.46875 18.261719 241.839844 19.527344 C 244.207031 20.792969 246.542969 22.117188 248.84375 23.496094 C 251.148438 24.878906 253.414062 26.3125 255.648438 27.804688 C 257.878906 29.296875 260.074219 30.84375 262.230469 32.441406 C 264.386719 34.042969 266.503906 35.695312 268.582031 37.398438 C 270.65625 39.101562 272.6875 40.851562 274.675781 42.65625 C 276.667969 44.460938 278.609375 46.308594 280.507812 48.210938 C 282.410156 50.109375 284.257812 52.050781 286.0625 54.042969 C 287.867188 56.03125 289.617188 58.0625 291.320312 60.136719 C 293.023438 62.214844 294.675781 64.332031 296.277344 66.488281 C 297.875 68.644531 299.421875 70.839844 300.914062 73.070312 C 302.40625 75.304688 303.839844 77.570312 305.222656 79.875 C 306.601562 82.175781 307.925781 84.511719 309.191406 86.878906 C 310.457031 89.25 311.664062 91.644531 312.8125 94.074219 C 313.957031 96.5 315.046875 98.953125 316.074219 101.433594 C 317.101562 103.914062 318.066406 106.417969 318.972656 108.949219 C 319.875 111.476562 320.71875 114.023438 321.496094 116.59375 C 322.277344 119.164062 322.992188 121.75 323.644531 124.355469 C 324.296875 126.960938 324.886719 129.578125 325.410156 132.210938 C 325.933594 134.84375 326.394531 137.488281 326.785156 140.144531 C 327.179688 142.800781 327.507812 145.464844 327.773438 148.136719 C 328.035156 150.808594 328.234375 153.488281 328.363281 156.167969 C 328.496094 158.851562 328.5625 161.535156 328.5625 164.21875 Z M 328.5625 164.21875 "/>
</g>
</g>
<mask id="mask1">
  <g filter="url(#alpha)">
<rect x="0" y="0" width="375" height="374.999991" style="fill:rgb(0%,0%,0%);fill-opacity:0.2;stroke:none;"/>
  </g>
</mask>
<clipPath id="clip4">
  <path d="M 0.359375 118 L 164.761719 118 L 164.761719 223.800781 L 0.359375 223.800781 Z M 0.359375 118 "/>
</clipPath>
<clipPath id="clip3">
  <rect x="0" y="0" width="165" height="224"/>
</clipPath>
<g id="surface8" clip-path="url(#clip3)">
<path style=" stroke:none;fill-rule:nonzero;fill:rgb(0%,0%,0%);fill-opacity:1;" d="M 82.5 1.03125 C 56.605469 1.03125 35.625 22.023438 35.625 47.90625 C 35.625 73.789062 56.605469 94.78125 82.5 94.78125 C 108.394531 94.78125 129.375 73.789062 129.375 47.90625 C 129.375 22.023438 108.394531 1.03125 82.5 1.03125 Z M 82.5 1.03125 "/>
<g clip-path="url(#clip4)" clip-rule="nonzero">
<path style=" stroke:none;fill-rule:nonzero;fill:rgb(0%,0%,0%);fill-opacity:1;" d="M 82.5 118.21875 C 0.476562 118.269531 0.46875 170.140625 0.46875 170.140625 L 0.46875 191.234375 C 0.46875 191.234375 15.613281 223.6875 82.5 223.6875 C 149.386719 223.6875 164.53125 191.234375 164.53125 191.234375 L 164.53125 170.140625 C 164.53125 170.140625 164.53125 118.1875 82.515625 118.21875 Z M 82.5 118.21875 "/>
</g>
</g>
<mask id="mask2">
  <g filter="url(#alpha)">
<rect x="0" y="0" width="375" height="374.999991" style="fill:rgb(0%,0%,0%);fill-opacity:0.2;stroke:none;"/>
  </g>
</mask>
<clipPath id="clip6">
  <path d="M 0.28125 0.28125 L 328.601562 0.28125 L 328.601562 172 L 0.28125 172 Z M 0.28125 0.28125 "/>
</clipPath>
<clipPath id="clip5">
  <rect x="0" y="0" width="329" height="177"/>
</clipPath>
<g id="surface11" clip-path="url(#clip5)">
<g clip-path="url(#clip6)" clip-rule="nonzero">
<path style=" stroke:none;fill-rule:nonzero;fill:rgb(100%,100%,100%);fill-opacity:1;" d="M 164.5 0.4375 C 161.816406 0.4375 159.132812 0.503906 156.449219 0.636719 C 153.769531 0.765625 151.089844 0.964844 148.417969 1.226562 C 145.746094 1.492188 143.082031 1.820312 140.425781 2.214844 C 137.769531 2.605469 135.125 3.066406 132.492188 3.589844 C 129.859375 4.113281 127.242188 4.703125 124.636719 5.355469 C 122.03125 6.007812 119.445312 6.722656 116.875 7.503906 C 114.304688 8.28125 111.757812 9.125 109.230469 10.027344 C 106.699219 10.933594 104.195312 11.898438 101.714844 12.925781 C 99.234375 13.953125 96.78125 15.042969 94.355469 16.1875 C 91.925781 17.335938 89.53125 18.542969 87.160156 19.808594 C 84.792969 21.074219 82.457031 22.398438 80.15625 23.777344 C 77.851562 25.160156 75.585938 26.59375 73.351562 28.085938 C 71.121094 29.578125 68.925781 31.125 66.769531 32.722656 C 64.613281 34.324219 62.496094 35.976562 60.417969 37.679688 C 58.34375 39.382812 56.3125 41.132812 54.324219 42.9375 C 52.332031 44.742188 50.390625 46.589844 48.492188 48.492188 C 46.589844 50.390625 44.742188 52.332031 42.9375 54.324219 C 41.132812 56.3125 39.382812 58.34375 37.679688 60.417969 C 35.976562 62.496094 34.324219 64.613281 32.722656 66.769531 C 31.125 68.925781 29.578125 71.121094 28.085938 73.351562 C 26.59375 75.585938 25.160156 77.851562 23.777344 80.15625 C 22.398438 82.457031 21.074219 84.792969 19.808594 87.160156 C 18.542969 89.53125 17.335938 91.925781 16.1875 94.355469 C 15.042969 96.78125 13.953125 99.234375 12.925781 101.714844 C 11.898438 104.195312 10.933594 106.699219 10.027344 109.230469 C 9.125 111.757812 8.28125 114.304688 7.503906 116.875 C 6.722656 119.445312 6.007812 122.03125 5.355469 124.636719 C 4.703125 127.242188 4.113281 129.859375 3.589844 132.492188 C 3.066406 135.125 2.605469 137.769531 2.214844 140.425781 C 1.820312 143.082031 1.492188 145.746094 1.226562 148.417969 C 0.964844 151.089844 0.765625 153.769531 0.636719 156.449219 C 0.503906 159.132812 0.4375 161.816406 0.4375 164.5 C 0.472656 166.789062 0.558594 169.078125 0.6875 171.367188 C 0.765625 168.734375 0.910156 166.105469 1.113281 163.484375 C 1.316406 160.859375 1.585938 158.238281 1.914062 155.628906 C 2.246094 153.015625 2.636719 150.414062 3.09375 147.820312 C 3.550781 145.226562 4.066406 142.648438 4.648438 140.078125 C 5.226562 137.511719 5.867188 134.960938 6.570312 132.421875 C 7.273438 129.886719 8.039062 127.367188 8.859375 124.867188 C 9.683594 122.367188 10.570312 119.886719 11.511719 117.429688 C 12.457031 114.972656 13.457031 112.539062 14.519531 110.128906 C 15.578125 107.71875 16.695312 105.335938 17.871094 102.980469 C 19.046875 100.625 20.277344 98.300781 21.566406 96.003906 C 22.851562 93.707031 24.195312 91.441406 25.589844 89.210938 C 26.984375 86.980469 28.433594 84.78125 29.9375 82.621094 C 31.4375 80.457031 32.992188 78.332031 34.597656 76.246094 C 36.199219 74.15625 37.851562 72.109375 39.554688 70.101562 C 41.257812 68.09375 43.007812 66.128906 44.804688 64.207031 C 46.605469 62.28125 48.445312 60.402344 50.335938 58.570312 C 52.222656 56.734375 54.152344 54.945312 56.125 53.203125 C 58.101562 51.460938 60.117188 49.769531 62.171875 48.125 C 64.226562 46.480469 66.320312 44.882812 68.453125 43.339844 C 70.585938 41.796875 72.753906 40.304688 74.957031 38.863281 C 77.160156 37.425781 79.398438 36.039062 81.667969 34.707031 C 83.9375 33.375 86.242188 32.097656 88.574219 30.878906 C 90.90625 29.65625 93.265625 28.492188 95.652344 27.382812 C 98.042969 26.277344 100.453125 25.226562 102.894531 24.234375 C 105.332031 23.242188 107.792969 22.3125 110.277344 21.4375 C 112.761719 20.566406 115.265625 19.753906 117.785156 19 C 120.308594 18.25 122.847656 17.558594 125.40625 16.925781 C 127.960938 16.296875 130.53125 15.726562 133.113281 15.222656 C 135.695312 14.714844 138.289062 14.269531 140.894531 13.890625 C 143.5 13.507812 146.113281 13.1875 148.734375 12.933594 C 151.351562 12.675781 153.976562 12.484375 156.605469 12.355469 C 159.238281 12.226562 161.867188 12.160156 164.5 12.15625 C 167.113281 12.15625 169.722656 12.222656 172.332031 12.347656 C 174.941406 12.476562 177.546875 12.664062 180.144531 12.914062 C 182.746094 13.164062 185.339844 13.476562 187.925781 13.851562 C 190.511719 14.226562 193.085938 14.664062 195.648438 15.160156 C 198.214844 15.660156 200.765625 16.21875 203.300781 16.835938 C 205.839844 17.457031 208.363281 18.136719 210.867188 18.875 C 213.371094 19.617188 215.859375 20.414062 218.324219 21.273438 C 220.792969 22.132812 223.238281 23.050781 225.660156 24.027344 C 228.085938 25 230.484375 26.035156 232.855469 27.125 C 235.230469 28.214844 237.578125 29.359375 239.898438 30.5625 C 242.214844 31.765625 244.503906 33.023438 246.765625 34.335938 C 249.023438 35.644531 251.25 37.011719 253.445312 38.429688 C 255.636719 39.847656 257.796875 41.316406 259.921875 42.835938 C 262.042969 44.359375 264.132812 45.929688 266.179688 47.550781 C 268.226562 49.171875 270.238281 50.839844 272.207031 52.554688 C 274.175781 54.273438 276.101562 56.035156 277.988281 57.84375 C 279.871094 59.652344 281.710938 61.503906 283.507812 63.402344 C 285.304688 65.296875 287.054688 67.238281 288.757812 69.21875 C 290.460938 71.195312 292.117188 73.21875 293.726562 75.277344 C 295.332031 77.335938 296.890625 79.433594 298.398438 81.566406 C 299.902344 83.699219 301.359375 85.867188 302.761719 88.070312 C 304.167969 90.273438 305.515625 92.511719 306.8125 94.777344 C 308.109375 97.046875 309.351562 99.34375 310.539062 101.667969 C 311.726562 103.996094 312.855469 106.351562 313.929688 108.730469 C 315.007812 111.113281 316.023438 113.519531 316.984375 115.949219 C 317.941406 118.378906 318.84375 120.828125 319.6875 123.300781 C 320.527344 125.773438 321.3125 128.265625 322.035156 130.777344 C 322.757812 133.285156 323.421875 135.8125 324.023438 138.351562 C 324.628906 140.894531 325.167969 143.449219 325.652344 146.015625 C 326.132812 148.585938 326.550781 151.164062 326.910156 153.75 C 327.265625 156.339844 327.5625 158.933594 327.796875 161.535156 C 328.03125 164.136719 328.203125 166.742188 328.3125 169.351562 C 328.417969 167.734375 328.503906 166.117188 328.5625 164.5 C 328.5625 161.816406 328.496094 159.132812 328.363281 156.449219 C 328.234375 153.769531 328.035156 151.089844 327.773438 148.417969 C 327.507812 145.746094 327.179688 143.082031 326.785156 140.425781 C 326.394531 137.769531 325.933594 135.125 325.410156 132.492188 C 324.886719 129.859375 324.296875 127.242188 323.644531 124.636719 C 322.992188 122.03125 322.277344 119.445312 321.496094 116.875 C 320.71875 114.304688 319.875 111.757812 318.972656 109.230469 C 318.066406 106.699219 317.101562 104.195312 316.074219 101.714844 C 315.046875 99.234375 313.957031 96.78125 312.8125 94.355469 C 311.664062 91.925781 310.457031 89.53125 309.191406 87.160156 C 307.925781 84.792969 306.601562 82.457031 305.222656 80.15625 C 303.839844 77.851562 302.40625 75.585938 300.914062 73.351562 C 299.421875 71.121094 297.875 68.925781 296.277344 66.769531 C 294.675781 64.613281 293.023438 62.496094 291.320312 60.417969 C 289.617188 58.34375 287.867188 56.3125 286.0625 54.324219 C 284.257812 52.332031 282.410156 50.390625 280.507812 48.492188 C 278.609375 46.589844 276.667969 44.742188 274.675781 42.9375 C 272.6875 41.132812 270.65625 39.382812 268.582031 37.679688 C 266.503906 35.976562 264.386719 34.324219 262.230469 32.722656 C 260.074219 31.125 257.878906 29.578125 255.648438 28.085938 C 253.414062 26.59375 251.148438 25.160156 248.84375 23.777344 C 246.542969 22.398438 244.207031 21.074219 241.839844 19.808594 C 239.46875 18.542969 237.074219 17.335938 234.644531 16.1875 C 232.21875 15.042969 229.765625 13.953125 227.285156 12.925781 C 224.804688 11.898438 222.300781 10.933594 219.769531 10.027344 C 217.242188 9.125 214.695312 8.28125 212.125 7.503906 C 209.554688 6.722656 206.96875 6.007812 204.363281 5.355469 C 201.757812 4.703125 199.140625 4.113281 196.507812 3.589844 C 193.875 3.066406 191.230469 2.605469 188.574219 2.214844 C 185.917969 1.820312 183.253906 1.492188 180.582031 1.226562 C 177.910156 0.964844 175.230469 0.765625 172.550781 0.636719 C 169.867188 0.503906 167.183594 0.4375 164.5 0.4375 Z M 164.5 0.4375 "/>
</g>
</g>
</defs>
<g id="surface1">
<rect x="0" y="0" width="375" height="374.999991" style="fill:rgb(100%,100%,100%);fill-opacity:1;stroke:none;"/>
<rect x="0" y="0" width="375" height="374.999991" style="fill:rgb(100%,100%,100%);fill-opacity:1;stroke:none;"/>
<rect x="0" y="0" width="375" height="374.999991" style="fill:rgb(100%,100%,100%);fill-opacity:1;stroke:none;"/>
<use xlink:href="#surface5" transform="matrix(1,0,0,1,23,35)" mask="url(#mask0)"/>
<path style=" stroke:none;fill-rule:nonzero;fill:rgb(24.708557%,68.629456%,67.449951%);fill-opacity:1;" d="M 351.5625 187.5 C 351.5625 190.183594 351.496094 192.867188 351.363281 195.550781 C 351.234375 198.230469 351.035156 200.910156 350.773438 203.582031 C 350.507812 206.253906 350.179688 208.917969 349.785156 211.574219 C 349.394531 214.230469 348.933594 216.875 348.410156 219.507812 C 347.886719 222.140625 347.296875 224.757812 346.644531 227.363281 C 345.992188 229.96875 345.277344 232.554688 344.496094 235.125 C 343.71875 237.695312 342.875 240.242188 341.972656 242.769531 C 341.066406 245.300781 340.101562 247.804688 339.074219 250.285156 C 338.046875 252.765625 336.957031 255.21875 335.8125 257.644531 C 334.664062 260.074219 333.457031 262.46875 332.191406 264.839844 C 330.925781 267.207031 329.601562 269.542969 328.222656 271.84375 C 326.839844 274.148438 325.40625 276.414062 323.914062 278.648438 C 322.421875 280.878906 320.875 283.074219 319.277344 285.230469 C 317.675781 287.386719 316.023438 289.503906 314.320312 291.582031 C 312.617188 293.65625 310.867188 295.6875 309.0625 297.675781 C 307.257812 299.667969 305.410156 301.609375 303.507812 303.507812 C 301.609375 305.410156 299.667969 307.257812 297.675781 309.0625 C 295.6875 310.867188 293.65625 312.617188 291.582031 314.320312 C 289.503906 316.023438 287.386719 317.675781 285.230469 319.277344 C 283.074219 320.875 280.878906 322.421875 278.648438 323.914062 C 276.414062 325.40625 274.148438 326.839844 271.84375 328.222656 C 269.542969 329.601562 267.207031 330.925781 264.839844 332.191406 C 262.46875 333.457031 260.074219 334.664062 257.644531 335.8125 C 255.21875 336.957031 252.765625 338.046875 250.285156 339.074219 C 247.804688 340.101562 245.300781 341.066406 242.769531 341.972656 C 240.242188 342.875 237.695312 343.71875 235.125 344.496094 C 232.554688 345.277344 229.96875 345.992188 227.363281 346.644531 C 224.757812 347.296875 222.140625 347.886719 219.507812 348.410156 C 216.875 348.933594 214.230469 349.394531 211.574219 349.785156 C 208.917969 350.179688 206.253906 350.507812 203.582031 350.773438 C 200.910156 351.035156 198.230469 351.234375 195.550781 351.363281 C 192.867188 351.496094 190.183594 351.5625 187.5 351.5625 C 184.816406 351.5625 182.132812 351.496094 179.449219 351.363281 C 176.769531 351.234375 174.089844 351.035156 171.417969 350.773438 C 168.746094 350.507812 166.082031 350.179688 163.425781 349.785156 C 160.769531 349.394531 158.125 348.933594 155.492188 348.410156 C 152.859375 347.886719 150.242188 347.296875 147.636719 346.644531 C 145.03125 345.992188 142.445312 345.277344 139.875 344.496094 C 137.304688 343.71875 134.757812 342.875 132.230469 341.972656 C 129.699219 341.066406 127.195312 340.101562 124.714844 339.074219 C 122.234375 338.046875 119.78125 336.957031 117.355469 335.8125 C 114.925781 334.664062 112.53125 333.457031 110.160156 332.191406 C 107.792969 330.925781 105.457031 329.601562 103.15625 328.222656 C 100.851562 326.839844 98.585938 325.40625 96.351562 323.914062 C 94.121094 322.421875 91.925781 320.875 89.769531 319.277344 C 87.613281 317.675781 85.496094 316.023438 83.417969 314.320312 C 81.34375 312.617188 79.3125 310.867188 77.324219 309.0625 C 75.332031 307.257812 73.390625 305.410156 71.492188 303.507812 C 69.589844 301.609375 67.742188 299.667969 65.9375 297.675781 C 64.132812 295.6875 62.382812 293.65625 60.679688 291.582031 C 58.976562 289.503906 57.324219 287.386719 55.722656 285.230469 C 54.125 283.074219 52.578125 280.878906 51.085938 278.648438 C 49.59375 276.414062 48.160156 274.148438 46.777344 271.84375 C 45.398438 269.542969 44.074219 267.207031 42.808594 264.839844 C 41.542969 262.46875 40.335938 260.074219 39.1875 257.644531 C 38.042969 255.21875 36.953125 252.765625 35.925781 250.285156 C 34.898438 247.804688 33.933594 245.300781 33.027344 242.769531 C 32.125 240.242188 31.28125 237.695312 30.503906 235.125 C 29.722656 232.554688 29.007812 229.96875 28.355469 227.363281 C 27.703125 224.757812 27.113281 222.140625 26.589844 219.507812 C 26.066406 216.875 25.605469 214.230469 25.214844 211.574219 C 24.820312 208.917969 24.492188 206.253906 24.226562 203.582031 C 23.964844 200.910156 23.765625 198.230469 23.636719 195.550781 C 23.503906 192.867188 23.4375 190.183594 23.4375 187.5 C 23.4375 184.816406 23.503906 182.132812 23.636719 179.449219 C 23.765625 176.769531 23.964844 174.089844 24.226562 171.417969 C 24.492188 168.746094 24.820312 166.082031 25.214844 163.425781 C 25.605469 160.769531 26.066406 158.125 26.589844 155.492188 C 27.113281 152.859375 27.703125 150.242188 28.355469 147.636719 C 29.007812 145.03125 29.722656 142.445312 30.503906 139.875 C 31.28125 137.304688 32.125 134.757812 33.027344 132.230469 C 33.933594 129.699219 34.898438 127.195312 35.925781 124.714844 C 36.953125 122.234375 38.042969 119.78125 39.1875 117.355469 C 40.335938 114.925781 41.542969 112.53125 42.808594 110.160156 C 44.074219 107.792969 45.398438 105.457031 46.777344 103.15625 C 48.160156 100.851562 49.59375 98.585938 51.085938 96.351562 C 52.578125 94.121094 54.125 91.925781 55.722656 89.769531 C 57.324219 87.613281 58.976562 85.496094 60.679688 83.417969 C 62.382812 81.34375 64.132812 79.3125 65.9375 77.324219 C 67.742188 75.332031 69.589844 73.390625 71.492188 71.492188 C 73.390625 69.589844 75.332031 67.742188 77.324219 65.9375 C 79.3125 64.132812 81.34375 62.382812 83.417969 60.679688 C 85.496094 58.976562 87.613281 57.324219 89.769531 55.722656 C 91.925781 54.125 94.121094 52.578125 96.351562 51.085938 C 98.585938 49.59375 100.851562 48.160156 103.15625 46.777344 C 105.457031 45.398438 107.792969 44.074219 110.160156 42.808594 C 112.53125 41.542969 114.925781 40.335938 117.355469 39.1875 C 119.78125 38.042969 122.234375 36.953125 124.714844 35.925781 C 127.195312 34.898438 129.699219 33.933594 132.230469 33.027344 C 134.757812 32.125 137.304688 31.28125 139.875 30.503906 C 142.445312 29.722656 145.03125 29.007812 147.636719 28.355469 C 150.242188 27.703125 152.859375 27.113281 155.492188 26.589844 C 158.125 26.066406 160.769531 25.605469 163.425781 25.214844 C 166.082031 24.820312 168.746094 24.492188 171.417969 24.226562 C 174.089844 23.964844 176.769531 23.765625 179.449219 23.636719 C 182.132812 23.503906 184.816406 23.4375 187.5 23.4375 C 190.183594 23.4375 192.867188 23.503906 195.550781 23.636719 C 198.230469 23.765625 200.910156 23.964844 203.582031 24.226562 C 206.253906 24.492188 208.917969 24.820312 211.574219 25.214844 C 214.230469 25.605469 216.875 26.066406 219.507812 26.589844 C 222.140625 27.113281 224.757812 27.703125 227.363281 28.355469 C 229.96875 29.007812 232.554688 29.722656 235.125 30.503906 C 237.695312 31.28125 240.242188 32.125 242.769531 33.027344 C 245.300781 33.933594 247.804688 34.898438 250.285156 35.925781 C 252.765625 36.953125 255.21875 38.042969 257.644531 39.1875 C 260.074219 40.335938 262.46875 41.542969 264.839844 42.808594 C 267.207031 44.074219 269.542969 45.398438 271.84375 46.777344 C 274.148438 48.160156 276.414062 49.59375 278.648438 51.085938 C 280.878906 52.578125 283.074219 54.125 285.230469 55.722656 C 287.386719 57.324219 289.503906 58.976562 291.582031 60.679688 C 293.65625 62.382812 295.6875 64.132812 297.675781 65.9375 C 299.667969 67.742188 301.609375 69.589844 303.507812 71.492188 C 305.410156 73.390625 307.257812 75.332031 309.0625 77.324219 C 310.867188 79.3125 312.617188 81.34375 314.320312 83.417969 C 316.023438 85.496094 317.675781 87.613281 319.277344 89.769531 C 320.875 91.925781 322.421875 94.121094 323.914062 96.351562 C 325.40625 98.585938 326.839844 100.851562 328.222656 103.15625 C 329.601562 105.457031 330.925781 107.792969 332.191406 110.160156 C 333.457031 112.53125 334.664062 114.925781 335.8125 117.355469 C 336.957031 119.78125 338.046875 122.234375 339.074219 124.714844 C 340.101562 127.195312 341.066406 129.699219 341.972656 132.230469 C 342.875 134.757812 343.71875 137.304688 344.496094 139.875 C 345.277344 142.445312 345.992188 145.03125 346.644531 147.636719 C 347.296875 150.242188 347.886719 152.859375 348.410156 155.492188 C 348.933594 158.125 349.394531 160.769531 349.785156 163.425781 C 350.179688 166.082031 350.507812 168.746094 350.773438 171.417969 C 351.035156 174.089844 351.234375 176.769531 351.363281 179.449219 C 351.496094 182.132812 351.5625 184.816406 351.5625 187.5 Z M 351.5625 187.5 "/>
<use xlink:href="#surface8" transform="matrix(1,0,0,1,105,81)" mask="url(#mask1)"/>
<path style=" stroke:none;fill-rule:nonzero;fill:rgb(100%,100%,100%);fill-opacity:1;" d="M 187.5 70.3125 C 161.605469 70.3125 140.625 91.304688 140.625 117.1875 C 140.625 143.070312 161.605469 164.0625 187.5 164.0625 C 213.394531 164.0625 234.375 143.070312 234.375 117.1875 C 234.375 91.304688 213.394531 70.3125 187.5 70.3125 Z M 187.5 70.3125 "/>
<path style=" stroke:none;fill-rule:nonzero;fill:rgb(100%,100%,100%);fill-opacity:1;" d="M 187.5 187.5 C 105.476562 187.550781 105.46875 239.421875 105.46875 239.421875 L 105.46875 260.515625 C 105.46875 260.515625 120.613281 292.96875 187.5 292.96875 C 254.386719 292.96875 269.53125 260.515625 269.53125 260.515625 L 269.53125 239.421875 C 269.53125 239.421875 269.53125 187.46875 187.515625 187.5 Z M 187.5 187.5 "/>
<use xlink:href="#surface11" transform="matrix(1,0,0,1,23,23)" mask="url(#mask2)"/>
</g>
</svg>
