<svg xmlns="http://www.w3.org/2000/svg" xmlns:xlink="http://www.w3.org/1999/xlink" viewBox="0 0 698 698"><defs><style>.cls-1{fill:none;}.cls-2{opacity:0.5;}.cls-3{fill:url(#Dégradé_sans_nom_8);}.cls-4{fill:url(#Dégradé_sans_nom_29);}.cls-5{fill:#f5f5f5;}.cls-6{fill:#bb76af;}.cls-7{fill:#8c7668;}.cls-8{opacity:0.1;isolation:isolate;}.cls-9{fill:#fdb797;}.cls-10{clip-path:url(#clip-path);}</style><linearGradient id="Dégradé_sans_nom_8" x1="349" y1="-0.11" x2="349" y2="697.89" gradientTransform="matrix(1, 0, 0, -1, 0, 697.89)" gradientUnits="userSpaceOnUse"><stop offset="0" stop-color="gray" stop-opacity="0.25"/><stop offset="0.54" stop-color="gray" stop-opacity="0.12"/><stop offset="1" stop-color="gray" stop-opacity="0.1"/></linearGradient><linearGradient id="Dégradé_sans_nom_29" x1="349" y1="-0.11" x2="349" y2="697.89" gradientTransform="matrix(1, 0, 0, -1, 0, 697.89)" gradientUnits="userSpaceOnUse"><stop offset="0" stop-color="#3d4949" stop-opacity="0.25"/><stop offset="0.54" stop-color="gray" stop-opacity="0.12"/><stop offset="1" stop-color="gray" stop-opacity="0.1"/></linearGradient><clipPath id="clip-path"><circle class="cls-1" cx="349.68" cy="346.77" r="341.64"/></clipPath></defs><g id="Base_Visage_Fredo" data-name="Base Visage Fredo"><g class="cls-2"><circle class="cls-3" cx="349" cy="349" r="349"/></g><g class="cls-2"><circle class="cls-4" cx="349" cy="349" r="349"/></g><circle class="cls-5" cx="349.68" cy="346.77" r="341.64"/><path class="cls-6" d="M350,689.76a340,340,0,0,0,187.79-56.2c-12.59-68.8-60.5-72.72-60.5-72.72H213.09s-45.21,3.71-59.33,67A340.08,340.08,0,0,0,350,689.76Z"/><circle class="cls-7" cx="346.37" cy="339.57" r="164.9"/><path class="cls-8" d="M293.15,476.92H398.81v84.53A52.83,52.83,0,0,1,346,614.28h0a52.83,52.83,0,0,1-52.83-52.83h0V476.92h0Z"/><path class="cls-9" d="M296.5,473h99a3.35,3.35,0,0,1,3.35,3.35h0v81.18A52.83,52.83,0,0,1,346,610.37h0a52.83,52.83,0,0,1-52.83-52.83h0V476.35A3.35,3.35,0,0,1,296.5,473Z"/><path class="cls-8" d="M293.34,516.82a152.06,152.06,0,0,0,105.66.29v-13H293.34Z"/><path class="cls-7" d="M256,294.7c-14,2.4-28.46,4.27-42.26,1.12s-27.11-12.19-31.6-25.65c-6.77-20.19,8.85-42.1,28.17-51.05a44.88,44.88,0,0,1-24.89-41c20,13.16,46.56,4.62,68.85-4.28-11.1.2-20.8-11.32-18.76-22.22,35.86,21.66,83.44,9,122.14,25a87.65,87.65,0,0,1,33.39,24.48C446.46,267.15,296.85,287.72,256,294.7Z"/><path class="cls-7" d="M378.54,211.25a97.06,97.06,0,0,1,32.32-21.17c34.13-13.09,67.37.86,100.83-17.57-1.36,10.2-11.94,20.44-20.44,19.74,14.77,9.28,32.93,18.43,51.89,7.15-4.42,16.1-16.19,30.47-30.23,36.92,12.48,9.19,18.61,30.24,8,48.65a48,48,0,0,1-31.25,22.34c-11.48,2.28-22.13-.12-32.26-3C427.79,296,318.07,270,378.54,211.25Z"/><circle class="cls-9" cx="346.37" cy="372.44" r="151.45"/><path class="cls-8" d="M238.49,234.68S302.32,364.24,482.37,289l-41.92-65.73L366.14,196.6Z"/><path class="cls-7" d="M238.49,232.78s63.83,129.56,243.88,54.3l-41.92-65.73-74.31-26.67Z"/><path class="cls-7" d="M237.93,224a87.43,87.43,0,0,1,21.69-35.27c29.79-29.45,78.63-35.66,103.68-69.24,6,9.32,1.36,23.65-9,27.65,24-.16,51.81-2.26,65.38-22a44.88,44.88,0,0,1-7.57,47.4c21.27,1,44,15.4,45.34,36.65.92,14.16-8,27.56-19.59,35.68s-25.71,11.85-39.56,14.9C357.86,268.7,211.54,306.07,237.93,224Z"/><ellipse class="cls-9" cx="194.86" cy="372.3" rx="14.09" ry="26.42"/><ellipse class="cls-9" cx="497.8" cy="372.3" rx="14.09" ry="26.42"/></g><g id="Fredo"><g class="cls-10"><g id="Gito"><path d="M285.6,313.82c-6.14-5.47-18.45-10.06-27.66-9.36-9.74.74-17.31,6.6-22.31,13-.53.67.61,1.3,1.29.81,3.29-2.38,7.26-6.49,11.33-7.89,4.75-1.63,10.5-1.1,15.16.32,6.65,2,12.24,6.37,19.3,7.16,2.83.31,5.07-2.13,2.89-4.06"/><path d="M438.72,317.33c-4.73-6.7-12.8-14.72-23.25-14.38s-19.72,9.22-24.74,15.93c-1.11,1.49,1,2.87,2.71,2.22,6.62-2.54,11.29-7.28,17.72-9.91,10.55-4.32,18.25,1.77,25.82,7.23.92.67,2.39-.17,1.74-1.09"/><path d="M276.81,353.63a11.27,11.27,0,0,0-15.25,1.81c-3.88,2.29-6.22,6.9-5.72,10.62,1,7.35,11.35,8.12,17.68,4.66,6.71-3.67,10-12.13,3.29-17.09m-4.28,10.11c-1.33.09-2.86.55-4,.34-2.71-.52-3.87-2.85-4.49-5,2-1.39,4.34-2.79,6.42-2.47,4.17.65,3.73,4.55,2,7.12"/><path d="M423.34,353.63a11.27,11.27,0,0,0-15.25,1.81c-3.87,2.29-6.22,6.9-5.71,10.62,1,7.35,11.33,8.12,17.67,4.66,6.71-3.67,10-12.13,3.29-17.09m-4.28,10.11c-1.33.09-2.86.55-4,.34-2.71-.52-3.87-2.85-4.49-5,2-1.39,4.34-2.79,6.42-2.47,4.17.65,3.73,4.55,2,7.12"/><path d="M604.3,699.59c-1.66-12-4.14-23.89-6.77-35.1a300.88,300.88,0,0,0-14.1-44c-4.28-10.56-8.37-24.36-16.75-33.37s-25.92-11.6-38-15.43c-17.7-5.59-35.45-11.08-53.4-16.11-9.92-2.78-20.05-5.62-30.29-8.31a3.11,3.11,0,0,0-2-.51,446.69,446.69,0,0,0-48.64-10.15c-.07-7-.46-13.93-.93-20.82,13.28-1.85,26.12-5.12,37.58-11.44,15.39-8.5,26.58-21.68,33.79-35.47,8.54-16.35,11.68-34.09,13.53-51.68.11-1.05.18-2.09.29-3.13,9.24,4.47,21.16,2.16,28.73-4.46C520.5,398,523.54,376.93,525,361.93c1.11-11.16,1.84-29.54-14.87-33.77l-.12,0c2.88-11.13,1.49-23.8,1.83-34.87.46-14.55,2.06-29.64,0-44.15,20.37-9.62,33.53-33.38,34.94-51.83,0-.14-.12-.21-.15-.34a2.23,2.23,0,0,0,.2-.3c.55-.91-.54-1.76-1.64-1.34-6.19,2.33-11.38,6.39-17.35,9.12s-12.06,3.72-18.19,5.5c7.93-14.24,6.18-32.25,3.4-47.18-.15-.81-1-1.05-1.77-.91a1.47,1.47,0,0,0-1.13.22c-10.73,7.87-20.79,17.09-34.62,21.12-26.1-9.64-55.58-15.08-82.8-22.21-27-7.06-54.53-13.93-83.07-14.72-23.45-.65-50.26,2.63-69.35,14.68-16,10.08-24.23,26.24-26.37,42.3-25.81,3.21-39.78,30.79-43.67,49.08-3,14.29-2.59,28.82-1.64,43.26.8,12.18,1.36,25.57,7.92,36.77-.7.12-1.39.24-2.11.43-14.86,4.08-20.52,20.57-20.65,31.87-.17,14.28,6.91,33.08,18.42,44,6.84,6.48,18,10.37,27.24,6.95,2.49,23.89,10.33,47.42,27.1,66.46,19.76,22.45,50.16,32.66,82.24,36,.12,6.3.26,12.62.57,18.91-27.94,5.29-55.52,12.94-82.71,19.85q-24.33,6.16-48.5,12.74c-12.53,3.39-27.17,6-38.08,12.39-8.7,5.11-13.39,12.69-17.27,20.61-6.2,12.61-11.83,25.47-17.24,38.32-8.22,19.52-15.51,39.6-18.8,60.12l-1,6.71,4.63,4c44.55,37.63,115.23,56.47,176.14,62.59,43.36,4.35,87.33,2.84,130.53-1.93,43.73-4.81,88.25-11.69,129.45-24.91,25.37-8.13,51.06-19.3,71.82-34.5l6.95-5.35Zm-91.15-364c8.64,5.68,6.35,20.65,5.4,28.46a109.39,109.39,0,0,1-7.36,28.06c-4.16,10.17-15.86,27.1-32.26,17.77q1.2-12.82,1.91-25.69a1.14,1.14,0,0,0,1-.65c2.57-7,3.28-13.53,7.87-20s11.53-12.87,21.55-12.52a1.14,1.14,0,0,0,1-1.94c-12.93-11.27-25.48,4.16-30.68,18.49q.24-7.55.31-15.11c.47-1.21.85-2.47,1.25-3.71a1.57,1.57,0,0,0,.75-.42c4.66-4.74,12.39-15.51,21.91-15.2a1.87,1.87,0,0,0,2.1.25,14.5,14.5,0,0,1,5.23,2.22M161.51,375.38c-1.92-7.84-2-16.27,1.27-23.88,3.63-8.31,13.24-20,28-10.56a21.3,21.3,0,0,1,5,5c.4,1.8.76,3.62,1.23,5.36a1.22,1.22,0,0,0,.48.57c-.19,1.66-.28,3.33-.32,5a23.05,23.05,0,0,0-8.36-8.45c-11.61-6.49-22.19,7.15-20.63,15.54.27,1.45,2.68.9,2.85-.31a17.41,17.41,0,0,1,3.52-7.74q9.51-5.58,12.94.83a41.53,41.53,0,0,1,5.28,9.53c2.31,5.75,2.7,11.62,3.9,17.53.2,1,1.24,1.23,2.22,1.06a189,189,0,0,0,0,25.3c-21.74,8.37-34.29-21.87-37.46-34.76m36.19-99.27c-5.53,19.33-6.65,41.66-3.35,62.12a20.67,20.67,0,0,0-13.28-6.18c-10.19-40.33-19.75-105,33.91-126.65,1.29.55,3.25.27,3.63-1.13,27-99.65,177.91-30.56,253.92-18,0,0,.05,0,.09,0,.27.05.51.05.77.09.79.12,1.62.28,2.39.39a2.21,2.21,0,0,0,1.15-.13c7.2-.12,13.74-4.12,19.41-7.62,5-3.09,10-6.51,13.24-10.85-.74,14.69-1.69,28.78-4.27,43.52-.19,1.1,1.25,1.9,2.28,1.36,10.41,2.61,25-3,33.65-10.23-3.06,7.78-6.61,15.39-11.82,22.45-6,8.14-14.36,14.36-21.21,21.89a1.28,1.28,0,0,0,.4,2.05c-2.55,13-2.05,26.56-2.38,39.68-.33,12.82-1.3,25.87-.94,38.71-7.85.06-14.72,4.9-19.46,10.61,2.06-10.64,2.53-21.63,2.6-31.87.13-18.05.16-38.37-5.44-56a146.41,146.41,0,0,0,15.4-11.14c1.53-1.27-.58-3.74-2.42-2.58-38.14,24.1-82.3,39.34-131.38,35.89a232.38,232.38,0,0,1-71.32-16.71C270.71,246.52,252.83,233.45,234,220c-1.17-.83-2.55.39-1.65,1.34,1.38,1.47,2.83,2.89,4.29,4.29-21.56,9.3-33.7,32.12-39,50.52m5.37,4.89a94.44,94.44,0,0,1,13-29.39c6.16-9.19,14.71-16.05,22.85-23.91,58.09,54,168.12,67.48,240.05,25.15,0,16.42,2.94,32.91,3.36,49.36.34,13.26-1.35,25.87-3.46,38.6a25.06,25.06,0,0,0-1.67-3.72,1.44,1.44,0,0,0-.76-1.51l-.07,0a1.19,1.19,0,0,0-.08-.16,2.81,2.81,0,0,0-2.37-1c-14.74-7.39-37.41-6.13-53.67-6.51-19.24-.44-40.74-1.08-58.5,5.88a.89.89,0,0,0-.55,1.17c-8.33,5.67-8.86,20.49-8,29.87-3.27-4.86-9.93-9.57-17-9.09a26.31,26.31,0,0,0-11.07,3.4c1-7.89-.08-15.93-3.62-22a1.46,1.46,0,0,0-.77-1.51l-.06,0c0-.05-.05-.11-.08-.16a2.83,2.83,0,0,0-2.38-1c-14.74-7.39-37.39-6.13-53.67-6.51-19.24-.44-40.73-1.08-58.5,5.88a.91.91,0,0,0-.55,1.17,15,15,0,0,0-4.56,5.16c0-19.76-2.93-39.17,2.13-59.06M309.66,541.59l6-1.63-.23-4.17c-.33-5.76-.78-11.51-1.27-17.27,7.55.59,15.18.83,22.74.77,1.83,0,2.38-2.42.45-2.69-7.94-1.15-15.85-2.18-23.63-3.29l-5-.74c-31.83-4.79-61-12-80.79-37.12-15.69-19.95-20.21-41.74-22.18-64.1a1.85,1.85,0,0,0-.1-1.27c-.79-9.48-1.17-19.05-1.76-28.63,8.47,10.27,24.45,16.59,39.35,16.64,1.57,0,2-2,.37-2.27C228.46,393,213,388,206.9,375.27c-4.63-9.69-4.9-32.21,6-40.11,16.41-1.29,32.42-2.9,49.1-2.57,18.64.36,35.63,2.65,53.65,5.29,5.74,12.24,4.14,31.89-6.47,42-10.88,10.36-28,16.15-44.59,15.7-1.2,0-1.5,1.56-.28,1.75,18.92,2.95,40.25-3.64,51.79-16.58a37.46,37.46,0,0,0,7.5-14.32c3.48-1.65,7-3.52,10.78-4.25,5.58-1.09,12.44,2.11,16.68,5a1.9,1.9,0,0,0,2.36-.13c.11.87.23,1.69.34,2.4,3,17.13,25,28.56,45.11,28.63,1.56,0,1.95-2,.37-2.27-15.13-2.78-30.63-7.84-36.7-20.55-4.62-9.69-4.9-32.21,6-40.11,16.41-1.29,32.42-2.9,49.1-2.57,18.63.36,35.63,2.65,53.64,5.29,5.75,12.24,4.14,31.89-6.46,42-10.88,10.36-28,16.15-44.59,15.7-1.21,0-1.51,1.56-.29,1.75,18.93,2.95,40.25-3.64,51.8-16.58a33.37,33.37,0,0,0,5.23-8.18c-2.55,28.5-3.17,57.79-13.54,84.71-5.66,14.7-15.06,29-29.39,39.27-11.79,8.44-26,13.12-40.91,16l-5.45,1-.17,2.91c-.34,6.36-.6,12.79-.61,19.19L387,541l7.26,1.59c8.23,1.76,16.48,3.48,24.72,5.21-9.8,22.33-39.48,45.45-69.58,45.12a73.4,73.4,0,0,1-41.31-13.79c-12.14-8.82-16.27-19.78-21.86-31.65,7.86-1.89,15.68-3.81,23.44-5.89m-28,7c-.26,27,35,48.52,65.47,49.93,31.21,1.45,70.2-24.32,77.64-49.43,4.88,1.05,9.75,2.15,14.62,3.27-7.71,36.17-49.68,56.26-92.76,57.93-21.31.83-42.76-2.91-59.61-14-18-11.92-20.16-26.14-25.53-42.91q10.08-2.37,20.17-4.75M539.29,735.88C542,717.07,541.93,697.81,544,679c2.22-20.14,5.17-40.21,7.57-60.32.15-1.27-2.37-1.53-2.7-.3A448.65,448.65,0,0,0,538.1,676.8c-2.46,19.92-5.74,41.05-4.38,61.14A334.42,334.42,0,0,1,497.62,749C447.91,761.28,395,768.25,343.18,770.16c-49.28,1.84-99.09-2-146-14.84a304.74,304.74,0,0,1-44.75-16.18c.18-38.94-5.91-78.27-9.66-117-.16-1.6-3.16-1.64-3.08,0,1.74,37.87,1.41,76.46,6.67,114.18a407.41,407.41,0,0,1-54.43-31.75,355.07,355.07,0,0,1,17.44-56.39c4.53-11.19,9.51-22.26,14.57-33.3,6-13,10.47-25.77,26.8-32.31C164.49,577,180.5,574,195,570.16s29-7.57,43.47-11.25c6.1-1.55,12.26-3,18.43-4.5-4.71,85.36,180.47,76.66,188.43-.73,6.1,1.45,12.2,3,18.26,4.6,15.53,4.24,30.95,8.78,46.32,13.42q10.91,3.31,21.79,6.7c7.73,2.4,19.16,4.37,25.87,8.4,11.59,7,16.68,28.17,20.92,39.05a315.5,315.5,0,0,1,12,38.06,296.37,296.37,0,0,1,7.16,40.55,268.79,268.79,0,0,1-58.44,31.42"/><path d="M382.44,456.94c-11.42,2.17-22.15,6.09-33.76,7.73-13.11,1.85-25.47.83-38.54-.47a1.39,1.39,0,0,0-.86,2.62c22.25,9.18,54.22,3.11,74.33-7.6,1.44-.77.53-2.61-1.17-2.28"/><path d="M348.42,430.73c-8,3.69-23.72,3.75-26.38-5.38-1.46-5,1-13.4,1.66-18.43a351.16,351.16,0,0,1,7.05-38.14c.32-1.36-2.09-1.95-2.58-.57a238.12,238.12,0,0,0-9.92,36c-1.37,7.31-6.05,19-2.54,26.05,5.26,10.55,27.57,10.54,34.7,2.06.84-1-.8-2.17-2-1.63"/></g></g></g></svg>