<svg xmlns="http://www.w3.org/2000/svg" xmlns:xlink="http://www.w3.org/1999/xlink" viewBox="0 0 698 698"><defs><style>.cls-1{fill:none;}.cls-2{opacity:0.5;}.cls-3{fill:url(#Dégradé_sans_nom_8);}.cls-4{fill:url(#Dégradé_sans_nom_8-3);}.cls-5{fill:#f5f5f5;}.cls-6{fill:#7ab3e2;}.cls-7{fill:#72351c;}.cls-8{opacity:0.1;isolation:isolate;}.cls-9{fill:#fda57d;}.cls-10{clip-path:url(#clip-path);}</style><linearGradient id="Dégradé_sans_nom_8" x1="349" y1="-0.11" x2="349" y2="697.89" gradientTransform="matrix(1, 0, 0, -1, 0, 697.89)" gradientUnits="userSpaceOnUse"><stop offset="0" stop-color="gray" stop-opacity="0.25"/><stop offset="0.54" stop-color="gray" stop-opacity="0.12"/><stop offset="1" stop-color="gray" stop-opacity="0.1"/></linearGradient><linearGradient id="Dégradé_sans_nom_8-3" x1="349" y1="-0.11" x2="349" y2="697.89" xlink:href="#Dégradé_sans_nom_8"/><clipPath id="clip-path"><circle class="cls-1" cx="349.66" cy="346.74" r="341.62"/></clipPath></defs><g id="Base_Visage_Paco" data-name="Base Visage Paco"><g class="cls-2"><circle class="cls-3" cx="349" cy="349" r="349"/></g><g class="cls-2"><circle class="cls-3" cx="349" cy="349" r="349"/></g><g class="cls-2"><circle class="cls-4" cx="349" cy="349" r="349"/></g><circle class="cls-5" cx="349.66" cy="346.74" r="341.62"/><path class="cls-6" d="M350,689.75a340.05,340.05,0,0,0,187.8-56.2c-12.62-68.81-60.5-72.75-60.5-72.75H213.12s-45.17,3.7-59.32,67A340,340,0,0,0,350,689.75Z"/><circle class="cls-7" cx="346.38" cy="339.54" r="164.91"/><path class="cls-8" d="M293.14,476.9H398.81v84.53a52.82,52.82,0,0,1-52.73,52.91H346a52.82,52.82,0,0,1-52.82-52.82V476.9Z"/><path class="cls-9" d="M303.14,473h85.49a10.09,10.09,0,0,1,10.09,10.09v74.44a52.82,52.82,0,0,1-52.82,52.83h0a52.82,52.82,0,0,1-52.82-52.83V483.07A10.09,10.09,0,0,1,303.17,473Z"/><path class="cls-8" d="M293.26,516.8a152.09,152.09,0,0,0,105.67.3v-13H293.26Z"/><path id="Path_66" data-name="Path 66" class="cls-7" d="M229.57,144.28C98,276.34,218.43,401.13,218.43,401.13l35.07-58.76-7.18,22.95L342,322.26l-21.53,37.32,31.1-14.36-19.14,45.94,81.33-83.26,40.67,74.65,64.6-137.81,24,11.48c-12-80.39-68.18-99.05-68.18-99.05l38.28-8.61c-40.68-43-98.1-34.43-98.1-34.43V71.07c-14.38,8.63-23.95,43.06-23.95,43.06C289.37,81.12,229.56,144.28,229.57,144.28Z"/><circle class="cls-9" cx="346.38" cy="372.43" r="151.45"/><path class="cls-7" d="M237.94,224a87.38,87.38,0,0,1,21.68-35.26c29.78-29.45,78.63-35.66,103.68-69.26A19.6,19.6,0,0,1,356,146.25a19.34,19.34,0,0,1-1.76.89c24.09-.15,51.83-2.26,65.38-22a44.92,44.92,0,0,1-7.56,47.4c21.26,1,44,15.39,45.35,36.65.91,14.15-7.95,27.55-19.6,35.68s-25.69,11.78-39.54,14.79C357.88,268.68,211.56,306.06,237.94,224Z"/><path class="cls-7" d="M497.83,373.75h-4l-78.12,69.6c-75.28-35.23-130.51,0-130.51,0l-81.92-66.67-8.25,1a151.45,151.45,0,0,0,302.84-3.89ZM346.17,470c-29.45,0-53.33-6-53.33-13.34s23.88-13.34,53.33-13.34,53.33,6,53.33,13.34S375.62,470,346.14,470Z"/><ellipse class="cls-9" cx="194.87" cy="372.28" rx="14.09" ry="26.41"/><ellipse class="cls-9" cx="497.8" cy="372.28" rx="14.09" ry="26.41"/></g><g id="Paco"><g class="cls-10"><path d="M615.65,651.77a317.65,317.65,0,0,0-11.4-44.46c-3.44-10.25-5.9-19-17.15-24.49-27.35-13.42-63.78-18.6-94.38-23-32.88-4.75-67.59-9.16-101.05-8.65.2-6.79-.1-33.5-.37-39.95,16.1-.81,34.7-4,49.39-9.23,16.15-5.72,26.65-17.75,34.43-30.83,12.83-21.52,16.6-45.07,16.56-68.79,6.26,4.57,18.75,2.72,25.69-1.7,17.46-11.1,20.58-31.12,22.31-48.42,1.19-11.89,5-36.63-14-39.76a25.72,25.72,0,0,0-3.26-.26c8.21-27.68,7-39.71-1.56-67.21-4.9-15.8-20-36.16-40.67-36.42,28.81-18.42,54.1-47.23,37.3-76.58a1.62,1.62,0,0,0-.34-.39c4.33-10.35,6.17-21.18,3.54-31.47a1.51,1.51,0,0,0-.63-.82h0c.93-1.52-1.42-3.29-2.87-1.91-15.07,14.35-30.44,26.06-52.67,31.3-22.79,5.36-47.12,3.76-70-.31-40-7.15-78-22.58-119.11-25-37.43-2.25-63.88,14.59-80.76,42.82-13.15,22-17.56,52.93.32,74C173.81,222.66,165.24,244,162.88,260c-3,20.43-6,27.71,8.34,45.71l-.16,0C158.58,310,159.6,336,159.44,345c-.27,14.31.42,35.63,11.4,47.48,6,6.49,15.89,9.4,23.93,5.81,1,27,7.81,54.54,24.28,76.46,19,25.29,52.47,40.87,87.12,41.83.35,4.48,1.34,28.8,1.67,33.28,0,.17,0,.35,0,.53-30,.3-61.86,8-90.75,13.5q-25.06,4.8-49.91,10.42c-14.45,3.27-31,5.55-43.7,12.67-20.56,11.51-26.51,37.5-32.43,56.42-6.34,20.28-12.2,42.31-13.57,63.92l-.26,7.84,5.82,5.82c47.88,43.7,130.37,58.88,195.9,62.16,91.1,4.56,189.64-10.86,274.17-40.3a461.4,461.4,0,0,0,59.2-25.2l8.35-4.4.25-8.79c.05-17.66-2.18-35.45-5.28-52.64m-99-390.62c4.23,24,4.27,27.74-1.29,51.53,0,.07,0,.14,0,.22-7.55,1.71-14.28,6.38-19.3,12.05,3.45-21.63.68-25.5-2.64-46.3-3.58-22.41-13.72-43.82-34.27-58.54l-.1,0c4.16-1.88,8.43-4.05,12.71-6.45,30.2,3.06,40.7,23.73,44.89,47.51M198.25,223.69c1.94,1.56,4.7-.73,3.62-2.7-9.39-17.11-14.39-33.18-9.42-52.13,4.24-16.12,15.05-31.75,28.5-43.42,32.63-28.31,83.84-12.81,122.27-2.75,53.66,14,136.06,31.71,172.93-17.71-1,11.46-2.53,21.72-8.16,32.61-4.81,9.31-11.24,17.91-16.8,26.87-.67,1.07,1,2.35,2,1.35a116.66,116.66,0,0,0,21.08-28.23c8.36,40.25-36,70.83-76.25,83.46a184.06,184.06,0,0,1-57.85,8.38c-19.46-.32-37.22-7.1-56.16-8-1.26-.06-2,1.49-1.07,2.21.16.11.34.18.48.29,0,.2-.13.37,0,.6,5.64,15.69-16.71,1.89-21.76-2.19-1.83-1.47-4.59,0-4.09,2.06a32.25,32.25,0,0,0,2.56,6.89,86.85,86.85,0,0,1-24-9.06c-1.93-1.1-4.45,1.08-3.18,2.75,1.84,2.46,3.64,5,5.44,7.43-8.42-.6-15.63-3.58-23.53-6.89a2.43,2.43,0,0,0-3.46,1.37C233,212.76,224.65,193.61,232,172.75c.59-1.74-2.46-2.43-3.14-.75-8.7,21.47-1.43,45,21.59,57.12a1.37,1.37,0,0,0,1.45-.17,19,19,0,0,0,4.42,5.63c-19.82-3.44-41.76-10.34-48.4-28.32-.49-1.34-2.87-1.13-2.87.33,0,9.89,7.81,17.9,18.21,23.52-19,6.15-25.73,26.52-29.3,42.41-4.52,20.18-5.46,20.76-3,41-3.78-4.08-9.07-7.84-14.6-8.34-10.8-32.29-17.58-62.26,21.92-81.49M308.1,555.61c.14,3.7.26,7.4.65,11.09.2,2,3.5,2.61,4.18.49a48.64,48.64,0,0,0,2.15-13.76,1.71,1.71,0,0,0,0-2.64c-.21-6.64-1.66-33.12-4.68-38.54-.69-1.25-2.31-1.15-3.37-.45-35-4.14-69-19.31-85.87-47.24-18.66-30.92-23.18-69.87-21.44-104.2.07-1.54-2.5-1.45-2.71,0a208.45,208.45,0,0,0-2.32,31.1c-25,13.35-28.32-35.77-28.17-46.5.11-7.63-.71-19.06,3.36-25.65,2.23-3.6,3.59-8.41,10.89-6.89,3.27.68,8.33,5.61,11.19,8,.93,5.72,2,11.42,3.52,17.1.34,1.33,3,1.07,2.82-.34-3.28-24.28-3.61-29.08.7-53.28,3.5-19.73,8.49-40.13,29.51-51.29,11,4.77,23.79,7.08,33.29,6.27,2-.18,2.92-3,.54-3.38l-.21,0s0-.08,0-.1c-.59-.85-1.19-1.69-1.77-2.53,7.17,3.07,14.52,4.89,23.12,4.27,1.87-.13,3.64-2,2.35-3.54q-1.42-1.76-2.87-3.5a91.79,91.79,0,0,0,21.2,6.26c2,.34,3.9-1.43,2.75-3.09a24.17,24.17,0,0,1-2.13-3.18c7.11,4.9,17.23,10.54,23.1,8.05,4.53-1.93,3.46-6.79,1.49-10.76,15.7,7.81,38.46,8.76,55.36,8.63a188.09,188.09,0,0,0,68.61-13.45c1.07-.43,2.14-.89,3.24-1.35a1.3,1.3,0,0,0,.35.87c18.91,20.07,28.43,20.43,30.9,46.24,2.17,22.61,1.21,44.87,1.27,67.46-.32.75-.62,1.5-.88,2.24-.56,1.6,1.79,2.51,3,1.5a1.87,1.87,0,0,0,1.92-1.19c.19-.63.3-1.29.48-1.91,5.47-7.51,13.18-15.65,23.49-17.12,19-2.7,16.51,17.95,15.62,28.58-.66,8.19-1.39,16.66-3.88,24.62a46.67,46.67,0,0,1-6.2,12.84c-4.94,7.21-19.49,22.12-31.08,6.63h0c-.37-10.33-1.19-17.46-2.19-26.32-.17-1.57-2.81-1.37-2.87.25-1.1,30.89-.24,63.45-13.77,92.6-6.33,13.61-16.12,28.61-31.63,35.66s-34.1,7.07-50.41,12.1c-1.16-1.26-3.94-.82-4.19,1.24-1.67,14.27-4.82,50.63-2,64.83.37,1.81,3.43,1.57,4,0a65.27,65.27,0,0,0,3-15.89c4.73.7,9.47,1.28,14.23,1.82-6.6,11.94-12.35,24.18-19.82,35.75-7.23,11.2-24,38-42.42,34.56-15.23-2.83-28.27-19.61-35.07-30.51-7.64-12.27-12.19-25.62-17.39-38.74,5.81-1.09,11.57-2.29,17.19-3.72M605.37,713q-17.75,9.07-36.49,16.5c.74-33.06,3.77-65.79,5.34-98.82.09-1.84-3.26-2.25-3.75-.43-8.72,32.58-10.24,68.32-8.32,101.76-10.46,4-21.08,7.66-31.9,10.89a838.55,838.55,0,0,1-165.8,31.42c-66.83,5.87-142.26,2.69-206.19-20.22,1.1-19.22-5-40.77-7.74-59.53-2.86-19.8-6.08-39.56-9.5-59.29-.33-1.88-4.05-1.45-3.87.46,2,21.33,4.29,42.65,7,63.94,2,16.34,1.94,35.11,6.5,51.53-24.25-9.44-46.72-21.78-66.12-37.85,3.66-20.44,6.23-41,12.14-61.16,7-23.91,13.21-55.13,43.53-64.09,27.34-8.08,56.49-13.17,84.71-18.42,20-3.74,41.12-5.91,61.56-9.51,3.57,16.79,9.23,33.72,19.86,48.17,8,10.93,22.89,26.52,39.29,27.49,16,.95,28.68-14.39,36.78-24.21,12.77-15.5,22.05-33.49,29.5-51.33A2.1,2.1,0,0,0,412,559c21.65,2.17,43.56,3.18,65.07,5.86,29.63,3.68,59.1,9.1,87.34,17.78,8.76,2.69,21.23,5.27,26.51,12.42,3.77,5.1,5.11,13,7,18.79a316.77,316.77,0,0,1,9.46,37.48c3.62,19.37,4.43,38.61,4.86,58-2.28,1.23-4.47,2.54-6.79,3.73"/><path d="M506.58,678.46A129.46,129.46,0,0,1,480.53,691c-8.23,2.81-14,6-19-7.18-1.28-3.4-.27-8.31,0-11.74a3,3,0,0,0-3.17-2.74,61.42,61.42,0,0,0-22.82,6.44c-2.44,1.22-1.58,3.83.32,4.7,4.74,13.15,10.34,41.37,32.08,40.15,21.16-1.18,35-24.55,42.72-38.6a2.83,2.83,0,0,0-4.1-3.52M474,712.77c-13.78,3.61-19.87-4.22-24.87-14-3.19-6.27-6.3-12.56-9.6-18.79A52.89,52.89,0,0,1,455,675.24c-.53,8.53-.47,21,10.15,23.63,10.14,2.54,23.67-3.71,34.23-9.75-6.3,9.85-14.27,20.75-25.33,23.65"/><path d="M483.08,664.41c-6.24-.57-12.49,2-14.17,7.75-2,6.85,4.61,12.58,12.41,12.45,7.25-.12,16.57-5.71,16.51-12.52-.06-6.38-8.39-9.27-14.75-7.68m-1.76,14.36c-4.46.23-7.78-2.91-6.14-6.7a7.07,7.07,0,0,1,4.62-3.71,1.58,1.58,0,0,0,.56.3c3.12.68,11-1,10.72,3.68-.22,3.45-6.34,6.26-9.76,6.43"/><path d="M276.59,216.32c-14-9.95-23.81-22.65-21.21-39,.26-1.67-2.65-2.45-3-.72-3.28,15.88,3.95,35.14,22,42.27,1.75.69,4-1.28,2.25-2.53"/><path d="M293.81,188.21c.53-1.25-1.75-2.05-2.47-.9-6.25,9.89-6.87,21.69-4,32.49.39,1.52,3.05.87,2.69-.64-2.64-10.89-.54-20.66,3.79-30.95"/><path d="M335.26,197.69c-8.57,1.64-13.38,10.86-17.24,17.86a35,35,0,0,1-2.66-15c.3-5.31,2.38-10.22,1.62-15.54-.23-1.58-2.84-2.67-3.89-.9a95.56,95.56,0,0,0-11.1,27.1,62,62,0,0,1-4.19-20.78c-.05-1.68-3-1.69-3,0a66.93,66.93,0,0,0,6,27.59c.64,1.44,3.41,1.83,3.84,0A132.12,132.12,0,0,1,312,195.56c-.66,3.46-1.36,6.94-1,10.45a42.15,42.15,0,0,0,4.82,15.41c.7,1.37,3.22,1.23,4,0,2.12-3.46,4.21-6.94,6.31-10.41q1.17-2,2.39-4,4.07-9,15.65-2.25c.22.78,1.61.61,1.62-.19,0-5.1-4.68-8-10.47-6.9"/><path d="M340.2,209.12a47.42,47.42,0,0,0-3.86,3.77c-1.13,1.14.82,2.81,1.91,1.65a48.49,48.49,0,0,0,3.8-4.2c.73-1-.9-2-1.85-1.22"/><path d="M523.48,348.16c-2.5-8.39-12.21-15-20.46-6.85-9.26,9.16-8.68,26.31-6.57,37.46.25,1.31,2.72,1.27,3,0,1.43-6.44,1.74-13,3.48-19.42.88-3.24,1.84-8.24,4.42-10.73,4.42-4.27,8.2-3.23,11.63,1.18,1.51,1.95,5.21.77,4.49-1.64"/><path d="M190.37,344.38c-1.46-3-3.46-6.12-6.92-7.73-5.79-2.68-13.95.85-12.13,7,.54,1.84,4.05,1.51,3.91-.46-.29-3.52,4.51-2.26,6.19-.61a16.43,16.43,0,0,1,3.05,5.09c1.57,3.39,2.84,6.84,5.23,9.87,1.25,1.58,4.33,1.09,4.33-1,0-4.27-1.77-8.23-3.66-12.11"/><path d="M296.43,297.72c-5.7-9-16.46-14.71-28-16.45-17.33-2.62-44.59,4.39-36.66,24.31.11.29.36.41.55.61-.9,1.57,1.53,3.37,3.29,2,8.77-6.78,21.05-8.1,32-4.89,9.52,2.78,15.53,9.07,23.36,14a2.35,2.35,0,0,0,2.92-.29,2.76,2.76,0,0,0,2-.44c6.72-4.63,4.12-13.07.47-18.85m-59.72,5c1-6.51,2.23-11.54,10.91-14.75,5.25-1.95,11.85-1.63,17.4-1,11.75,1.27,33.69,12.07,28.11,25.43-11.75-16.19-39-20.78-56.42-9.65"/><path d="M456.3,286.21c-8.37-8.12-23.71-7.65-34.77-4.73-12.59,3.32-23.37,11-29,21.39-2.36,4.37-3.85,9.63-1.05,12.71.65,2.92,3.05,5.75,6.3,5.25a1.24,1.24,0,0,0,1-1.24,2.42,2.42,0,0,0,.64-.27c8.14-6.75,15.28-15.24,26.35-18.6,8.85-2.69,14.43-.7,20.39,5.52,2.46,2.57,1.95,2.69,5.42,4.2a2.33,2.33,0,0,0,2.9-.69,2.06,2.06,0,0,0,.74-.47c6.52-6.68,8.23-16.13,1.06-23.07m-3.82,17.7c-5-8.06-10.56-12.37-23.36-10.32-13.63,2.19-24.09,11.1-31.59,20.78-4.15-5.84,5.66-15.75,9.48-18.9a43.61,43.61,0,0,1,16.37-8.23c5.87-1.52,13.69-2.51,19.62-1,11.16,2.79,11.06,10.09,9.48,17.7"/><path d="M362,413.83c-9.66.14-24.15,3.19-27.89-9.36-1-3.25.51-8.1.84-11.34,1.13-11.15,2.68-22.34,4.54-33.42.26-1.53-2.29-2.25-2.77-.65a262.34,262.34,0,0,0-7.9,33.36c-1,5.84-3.12,12.7-1.1,18.49,4.43,12.73,24.34,11.08,35.46,6.71,2.18-.86,1-3.83-1.18-3.79"/><path d="M393.2,442.75c-13.33-.3-27,3.41-40.29,4.59-11.36,1-23,.84-34.19,2.79l-.18-.08c-1.5-.65-3.39.71-2.41,2.09,4.33,6.09.69,12.53,9.12,16,7.88,3.22,19.66.33,27.8-.79,10.59-1.46,24.47-2.54,34.15-6.63,7.23-3,7.48-8.79,7.83-15.33a1.89,1.89,0,0,0-1.83-2.64m-48.89,19.48c-3.1.31-7.35,1.19-10.43.73-6.2-.92-6.89-3.6-9.26-6.92a21,21,0,0,1-1.52-2.42c11.6,1.35,23.73.15,35.23-1,10-1,20.78-1.65,30.41-4.58-9.92,11.13-28.66,12.6-44.43,14.15"/><path d="M434.54,330.48c-2.74-5.93-9.89-7.44-13.12-3.58-5.34,1.51-5.12,13.47-4.86,16.92.45,5.93,5.25,18.59,14.83,12.32,4.16-2.73,4.2-7.43,4.39-11.54.24-4.64.83-9.69-1.24-14.12m-11.76,1.85c.45-.21.91-.4,1.31-.54,1-1.66,2.28-1.72,3.89-.16.32.72.64,1.44.95,2.16a20.55,20.55,0,0,1,.57,7.08,13.33,13.33,0,0,1-2.42,2.74,6,6,0,0,1-4.2.82c-.05-.57-.07-1.11-.11-1.55a59.92,59.92,0,0,1,0-10.55"/><path d="M272.13,330.48c-2.75-5.93-9.9-7.44-13.13-3.58-5.34,1.51-5.12,13.47-4.86,16.92.45,5.93,5.25,18.59,14.83,12.32,4.16-2.73,4.19-7.43,4.4-11.54.22-4.64.81-9.69-1.24-14.12m-11.77,1.85c.46-.21.91-.4,1.31-.54,1-1.66,2.28-1.72,3.9-.16.32.72.62,1.44.94,2.16a20.8,20.8,0,0,1,.58,7.08,13.69,13.69,0,0,1-2.43,2.74,6.08,6.08,0,0,1-4.21.82c0-.57-.07-1.11-.1-1.55a59.92,59.92,0,0,1,0-10.55"/></g></g></svg>