<svg xmlns="http://www.w3.org/2000/svg" xmlns:xlink="http://www.w3.org/1999/xlink" viewBox="0 0 698 698"><defs><style>.cls-1{fill:none;}.cls-2{opacity:0.5;}.cls-3{fill:url(#Dégradé_sans_nom_29);}.cls-4{fill:url(#Dégradé_sans_nom_8);}.cls-5{fill:url(#Dégradé_sans_nom_8-2);}.cls-6{fill:#f5f5f5;}.cls-7{fill:#d0aab7;}.cls-11,.cls-8{fill:#72351c;}.cls-9{opacity:0.1;isolation:isolate;}.cls-10{fill:#fda57d;}.cls-11{opacity:0.4;}.cls-12{clip-path:url(#clip-path);}</style><linearGradient id="Dégradé_sans_nom_29" x1="349" y1="-0.11" x2="349" y2="697.89" gradientTransform="matrix(1, 0, 0, -1, 0, 697.89)" gradientUnits="userSpaceOnUse"><stop offset="0" stop-color="#3d4949" stop-opacity="0.25"/><stop offset="0.54" stop-color="gray" stop-opacity="0.12"/><stop offset="1" stop-color="gray" stop-opacity="0.1"/></linearGradient><linearGradient id="Dégradé_sans_nom_8" x1="349" y1="-0.11" x2="349" y2="697.89" gradientTransform="matrix(1, 0, 0, -1, 0, 697.89)" gradientUnits="userSpaceOnUse"><stop offset="0" stop-color="gray" stop-opacity="0.25"/><stop offset="0.54" stop-color="gray" stop-opacity="0.12"/><stop offset="1" stop-color="gray" stop-opacity="0.1"/></linearGradient><linearGradient id="Dégradé_sans_nom_8-2" x1="349" y1="-0.11" x2="349" y2="697.89" xlink:href="#Dégradé_sans_nom_8"/><clipPath id="clip-path"><circle class="cls-1" cx="349.66" cy="346.74" r="341.62"/></clipPath></defs><g id="Base_visage_Arthur" data-name="Base visage Arthur"><g class="cls-2"><circle class="cls-3" cx="349" cy="349" r="349"/></g></g><g id="Base_Visage_Yann" data-name="Base Visage Yann"><g class="cls-2"><circle class="cls-4" cx="349" cy="349" r="349"/></g><g class="cls-2"><circle class="cls-5" cx="349" cy="349" r="349"/></g><circle class="cls-6" cx="349.66" cy="346.74" r="341.62"/><path class="cls-7" d="M350,689.75a340.05,340.05,0,0,0,187.8-56.2c-12.62-68.81-60.5-72.75-60.5-72.75H213.12s-45.17,3.7-59.32,67A340,340,0,0,0,350,689.75Z"/><circle class="cls-8" cx="346.38" cy="339.54" r="164.91"/><path class="cls-9" d="M293.14,476.9H398.81v84.53a52.82,52.82,0,0,1-52.73,52.91H346a52.82,52.82,0,0,1-52.82-52.82V476.9Z"/><path class="cls-10" d="M303.14,473h85.49a10.09,10.09,0,0,1,10.09,10.09v74.44a52.82,52.82,0,0,1-52.82,52.83h0a52.82,52.82,0,0,1-52.82-52.83V483.07A10.09,10.09,0,0,1,303.17,473Z"/><path class="cls-9" d="M293.26,516.8a152.09,152.09,0,0,0,105.67.3v-13H293.26Z"/><path class="cls-8" d="M235.47,141.17A100.67,100.67,0,0,1,328.3,91.79a197.33,197.33,0,0,1,56.09,15.7l92.34,36c23.89,9.32,50.06,20.73,60.43,44.19,9.62,21.77,2.44,46.92-4.83,69.58L497.79,365a328.47,328.47,0,0,0-19.58-71.18c-10-22.52-25.91-43.3-47.85-54.55-24-12.31-52.25-12.05-79.18-10.76-38.13,1.84-79.59,6.69-106.68,33.59A110.75,110.75,0,0,0,216.38,317a330.79,330.79,0,0,0-5.9,62.16,515.19,515.19,0,0,1-39.35-84.37,208.49,208.49,0,0,1-14.62-68.29,96.07,96.07,0,0,1,22-65c15.6-17.43,41-26.84,63.37-19.94"/><path id="Path_66" data-name="Path 66" class="cls-8" d="M229.57,144.28C98,276.34,218.43,401.13,218.43,401.13l35.07-58.76-7.18,22.95L342,322.26l-21.53,37.32,31.1-14.36-19.14,45.94,81.33-83.26,40.67,74.65,64.6-137.81,24,11.48c-12-80.39-68.18-99.05-68.18-99.05l38.28-8.61c-40.68-43-98.1-34.43-98.1-34.43V71.07c-14.38,8.63-23.95,43.06-23.95,43.06C289.37,81.12,229.56,144.28,229.57,144.28Z"/><circle class="cls-10" cx="346.38" cy="372.43" r="151.45"/><path class="cls-8" d="M237.94,224a87.38,87.38,0,0,1,21.68-35.26c29.78-29.45,78.63-35.66,103.68-69.26A19.6,19.6,0,0,1,356,146.25a19.34,19.34,0,0,1-1.76.89c24.09-.15,51.83-2.26,65.38-22a44.92,44.92,0,0,1-7.56,47.4c21.26,1,44,15.39,45.35,36.65.91,14.15-7.95,27.55-19.6,35.68s-25.69,11.78-39.54,14.79C357.88,268.68,211.56,306.06,237.94,224Z"/><ellipse class="cls-10" cx="194.87" cy="372.28" rx="14.09" ry="26.41"/><ellipse class="cls-10" cx="497.8" cy="372.28" rx="14.09" ry="26.41"/><path class="cls-11" d="M377.08,517.77a234.19,234.19,0,0,0-7.43-29.71,31.84,31.84,0,0,0-3.93-16.91,4.58,4.58,0,0,0-5.88-2.08c-2.08-3.31-8-2.91-9.1,1.23a4.84,4.84,0,0,0-5.29.84,4.9,4.9,0,0,0-7.18-.35c-8,7.66-16.19,19.22-8.09,29.94l.06.08q-2.88,7.79-5.74,15.58c-2,5.58-5,14.75,1.67,18.4a5,5,0,0,0,5,0l.56-.39c3.45-2.45,2.41-7.1-.21-8.85,1-2.26,4-10.22,5.09-13.29-.07,1.45-.24,2.91-.31,4.21-.25,5.3-1.1,11.85,4,15.25,3.93,2.6,9.53,1.47,11.49-2.94,1.23-2.8.63-5.79.45-8.74l-.09-1.46a73.09,73.09,0,0,0,5.7,18.51c2.57,5.49,10,1.33,9.14-3.85l-1-5.64a4.07,4.07,0,0,0-2.45-3.29,64.09,64.09,0,0,1-2.08-9.94,4.82,4.82,0,0,0,1.37-.06,17.27,17.27,0,0,0,1.42,2.94c.76,1.25,2.2,2.65,3.27,4.13.42,2.36.82,4.73,1.17,7.11.79,5.39,8.13,4,9.64,0A12.2,12.2,0,0,0,377.08,517.77Z"/><path class="cls-11" d="M426.88,451.5c-.09-.23-.19-.49-.33-.8-.28-1-.6-2-.94-3a20.74,20.74,0,0,0-4.17-12.63,26.5,26.5,0,0,0-5.22-5.25,32.77,32.77,0,0,0-11.66-9.7c-8-3.72-16.19-2.41-24.33-.07a152.26,152.26,0,0,0-18.47.79,81,81,0,0,0-10.56,1.58c-1.41,0-2.83.07-4.24.12q-3.58.12-7.16.32a5.18,5.18,0,0,0-1.81-.26A101,101,0,0,0,324.62,424q-15.28,1.44-30.44,4.07c-7,1.22-16.09,1.81-21.4,7.21-5.48,5.56-3.86,13.18-7,19.68-2.1,4.36,2.26,9.46,6.84,6.84l4.54-2.56c0,.2-.06.38-.08.58-.53,5.59,8.71,6.84,9.82,1.33,1.56-7.72,10.64-10.15,17.24-12.06,10.07-2.91,20.3-5.88,30.77-6.9,4.85-.48,14.7.76,18-4.1l30.75.23c5.39,0,11.85-.79,16.78,1.83a14.22,14.22,0,0,1,2.29,1.52,13.8,13.8,0,0,1,1.91,8.9c-.4,4.41,5.4,6.15,8.31,3.91a4.88,4.88,0,0,0,1.49.42,5.71,5.71,0,0,0,5.06,3.8c2.45,2.93,6.06,4.17,9.81,1C432.8,456.73,430.34,452.4,426.88,451.5Z"/></g><g id="Yann"><g class="cls-12"><g id="Parjo"><path d="M614.41,655.51a364.85,364.85,0,0,0-12.47-50.12c-4.07-12.52-7.4-21.94-20.36-29.58-29.85-17.58-68-25.57-103.35-30.6-5.78-.83-11.71-1.66-17.69-2.47l-8.31-1.11c-9.76-1.26-19.67-2.42-29.61-3.3l-6.55-.56c-7.15-.54-14.3-.91-21.39-1.06a181.1,181.1,0,0,0-2.25-20c34.91-6.82,62.51-33.87,75.16-61.07,7.56-16.26,11.37-33.53,14.07-50.82,34.76,8,46.69-52.75,46.1-71.37-.36-11.68-4-28.53-21.1-30.07a22.5,22.5,0,0,0-4.2.05c6.4-10.19,5.36-24.29,6-35.36a335.84,335.84,0,0,0-.7-47.79c-1.48-17.48-7.25-44.23-34.07-42.7,17.49-28.42-35.2-56.37-62.58-59.39-43.24-4.77-94.17,4.68-133.93,18.77-38.58,13.67-73.57,36.7-93.41,68.37-19.6,31.29-23.7,76.26-8.66,110a24,24,0,0,0-3.79.57c-13.35,3.18-20,15.29-20.77,26.14-1.55,21.52,11.94,68.4,46.82,64.89,3.5,21.64,7.93,44.19,18.89,63.81,10.24,18.36,30.27,36.77,51.86,46,11.83,5,26.24,6.87,40.71,6.85-.25,5-.39,10-.42,15-4,.47-8,1-12,1.64l-3.28.53c-9.38,1.51-18.7,3.38-28,5.4l-7.86,1.73c-10.07,2.3-20.06,4.78-29.93,7.29-30.84,7.85-65,14.72-91.08,31.53-24.76,16-32.44,38.45-38,63.37-5.46,24.28-9.93,49.17-12.14,74l-.31,3.79,5.78,4.63c18.57,14.15,39.83,25.23,62.65,34l8.86,3.18c47.52,16.66,100.93,23.77,150.6,27,75.43,4.87,152.47-3.45,221.84-29.07l8.5-3.29c7.46-2.94,14.86-6,22.12-9.37a400.82,400.82,0,0,0,44.7-24.12l8.39-5.43.34-8.59c.47-20.54-1.68-41.28-5.14-61.24M421.55,544.42c10.19.78,20.43,1.67,30.62,2.75a142.87,142.87,0,0,1-3.9,31.74c-5.15,20.6-14.06,40.21-25.51,58.86-7-6.31-11.84-14.32-20.17-20a78.34,78.34,0,0,0-19.11-9.42,3.09,3.09,0,0,0-2.68-.84c-.63-.19-1.23-.4-1.86-.58,25.52-10.49,37.71-37.63,42.61-62.54M398.44,726.23c.18-29.1-8.06-61.25-22.57-86.56a32.24,32.24,0,0,0,6.95-5.66c4.61-5.22,3.89-12.72,2.43-19.34a83.33,83.33,0,0,1,16.68,10c7.48,5.95,11.71,14.23,19.36,19.77,1.56,1.14,4.21,1.16,5.29-.57a261.43,261.43,0,0,0,24.17-49.14c-5.37,29.13-14,58.26-26.05,84.87a326.26,326.26,0,0,1-26.26,46.59M343.2,647.44a38.6,38.6,0,0,0,11.63,0,56.92,56.92,0,0,0,17.54-5.79c4.08,16,9.63,31.69,13.28,47.78,3.32,14.68,5,29.54,7.65,44.3-.7,1-1.36,2-2.07,3-6.14,8.65-12.64,17.1-19.34,25.45-3.72,4.63-7.94,11.14-12.74,17-8.21-7.18-17-12.79-24.14-21-1.43-1.65-2.78-3.34-4.11-5,0,0,0-.05,0-.08-1.51-36.19,6.74-70.17,12.28-105.69m13.13-6.81a31.51,31.51,0,0,1-13.45.21c-.14,0-.24-.07-.38-.07a22.17,22.17,0,0,1-11.21-6.15c-4.23-4.37-5.4-11.15-6.78-16.67,6.13-2.68,12.49-5.23,19.23-7.87a58.32,58.32,0,0,0,21.13.73,60.71,60.71,0,0,0,7.32-1.54c2.23.8,4.41,1.67,6.57,2.55.84,6.46,2.22,14.48-2.9,19.58-4.12,4.1-13.52,7.86-19.53,9.23M510.69,310.52c7.42,3.33,9.27,12.36,10.08,18.53a79.64,79.64,0,0,1-1.41,28.07c-3.85,16.7-13.76,42.06-37,42.9.12-.76.23-1.52.34-2.27,2.39-16.89,5.19-34.35,6.2-51.65,2.66-3.89,4.51-9.28,9.21-11.46,6.79-3.13,9.66,5,10.42,9.23.33,1.85,3.36,1.16,3.56-.4.56-4.32,1.48-8.21-1.45-12.12A12,12,0,0,0,500,326.88a12.67,12.67,0,0,0-10.64,6.81c0-3.37-.06-6.74-.26-10.07,0-.1-.09-.15-.12-.23.08-.37.12-.75.18-1.13,2.37-7.77,8-17.83,21.55-11.74M185.57,214.88c15.36-27.84,42.6-49.85,74.31-64.35,35.64-16.28,76.41-23.66,116.53-26.31,18.44-1.22,37.85-1.4,55,5.2,21.46,8.26,42.35,28,36.53,49-.47,1.7,1.52,2.81,3.09,2.31a2.49,2.49,0,0,0,1.57.6c31.9,1.8,28.15,41.38,28.53,60.53.4,19.9,1.52,42.44-3.62,62a1.7,1.7,0,0,0,0,.81,17.81,17.81,0,0,0-8.13,6.23c-1.59-13.66-9.2-27.12-15.12-39.59-5.58-11.78-9.6-23.52-10.38-36.29-.65-10.6,1.54-20.82,2.69-31.28l.13-.12a1.44,1.44,0,0,0,.12-2c0-.3.08-.6.1-.9.09-1.06-1.86-1.53-2.4-.56-.22.41-.37.86-.59,1.28-6.87,3.38-13.67,6.76-21.29,8.86-5.58,1.56-11.36,1.84-17,2.72a60.6,60.6,0,0,0,5.07-9.78,76,76,0,0,0,6.17-17.71c.23-1.22-1.86-2.26-2.58-.92-.86,1.58-1.66,3.2-2.47,4.8-33.84,18.7-73.33,30.2-111.4,41.25-35.85,10.4-82,26.75-114.85,5.25,0-.05,0-.11-.05-.17a1.45,1.45,0,0,0-1.29-.82,62.76,62.76,0,0,1-5.24-4c-1.14-1-2.78.26-2.15,1.41a35,35,0,0,0,6.11,8,140.16,140.16,0,0,1-.7,40.69c-2,11.74-6.27,23-9.5,34.42a1,1,0,0,0-.62.8c-.07.7-.1,1.41-.16,2.11-.21.82-.38,1.66-.58,2.48a19.53,19.53,0,0,0-10.76-5.22c-6.36-34.4-13.36-67.5,4.95-100.67M160.91,366.56c-2.17-7.26-3.93-14.87-3.65-22.37.52-13.35,17.53-33.69,33.09-18a1.77,1.77,0,0,0,1,1.24c-.19,3.83-.18,7.65-.2,11.47a18,18,0,0,0-8.83-5c-10.47-1.75-18.33,10.1-17.15,17.62.23,1.41,2.66,2.47,3.61.83,2.37-4.12,6.38-16.05,14.19-12.17,4.1,2,6.4,5.53,8.26,9.1a379.86,379.86,0,0,0,4.59,47.8c.27,1.72.55,3.48.83,5.23-20.92-5.77-30.38-17.73-35.73-35.77m147.49,177,8.43-1.52,0-4.39c-.12-4.77-.46-9.57-.92-14.29l-.14-1.35a104.28,104.28,0,0,0,27.88-4.18.89.89,0,0,0-.29-1.75c-12.32.65-24.64.89-37,1.27-14.62-.41-28.92-2.45-40.48-8.79-23.1-12.66-40.78-31.83-49.48-53.8-16.43-41.53-18.27-87.17-21.34-130.75,13.07-23.34,18.75-53.86,12.88-79.71,25.13,16.93,71.84,3.13,98.13-3.94,25.11-6.75,49.81-14.67,74.14-23.19,16.59-5.8,34.75-11.13,48.33-21.3-.5,1-1,2.05-1.49,3.07-2.5,5.16-7.86,10.53-7.86,16.09v0a2.4,2.4,0,0,0,.37.91l.12,0a2,2,0,0,0,.58.53,1.11,1.11,0,0,0,.3.17c.11.05.17.15.3.19,12.5,3.65,29.29-1.42,40.17-8.79-5.71,16.25-4.1,35.11,1.44,50.85,8.39,23.88,22.87,43,21.63,68.82,0,.82.62,1.28,1.37,1.41-8.49,36.41-6.88,74.25-19,110.21-6.05,18-15.41,35.32-31,48.87-12.83,11.17-27.86,17.43-44.17,22.36l-5.42,1.57.14,5.53c.15,6.31.39,12.65.81,19l.43,5.38,7.53.48c6.6.43,13.25.88,19.91,1.36-5.56,24.47-14.56,50.42-43.59,59.2-43.36,13.11-64.06-27.6-73.21-57.54,3.5-.67,7-1.33,10.48-2m-14.72,2.75c3.28,23.61,17.06,51.13,41.76,61.17-18.69,4.19-36.26,14.73-49.53,26.29-6.24-15.63-12-31.44-16.08-47.59-2.9-11.54-3.76-22.82-4.39-34.18q14.08-3,28.24-5.69M281.27,640a3.66,3.66,0,0,0,5.62,1.25c10.84-9.78,22.13-16.27,34.46-21.89-.09,12.13,5.7,23,17.39,26.95-6.67,17.35-9.79,35.83-12.42,53.87-1.88,12.85-5.47,28.11-3.48,41.81q-2.29-3.39-4.54-6.8a283.26,283.26,0,0,1-29-56C282,659.69,275,640,269.15,620.16a288.73,288.73,0,0,1-8.9-43.08c4.65,21.82,13.76,43.6,21,62.9M345,791.6a2.63,2.63,0,0,0-.44.32,691.32,691.32,0,0,1-119.37-12.69A485.22,485.22,0,0,1,162.48,763c-1.24-14.3-2.48-28.61-3.5-42.92-2.31-32.54-3.43-69.27-16.46-100.27-.3-.73-1.8-.69-1.7.2,4.12,35,8.94,69.63,11.12,104.86.72,11.61,1.2,23.38,1.86,35.18-22.19-8.11-43.2-18.32-61.62-31.44,3.66-22.53,5.94-45.25,10.54-67.68,6-29.27,13.09-56.54,44.41-73.7,25.79-14.12,58.08-20.55,87.2-28,.77-.19,1.54-.35,2.3-.55-9.82,9.65-14.51,21.76-19.19,33.85a438.91,438.91,0,0,0-17.34,56.5c-3.1,13-2.19,15.92,12.15,21.74,13.35,5.42,27,10.81,41.09,14.73-8.89,8.51-17.66,18.59-22.87,28.75-4,7.72-1.8,12.92,3.34,19.79,15.2,20.33,36.86,39.9,62.63,50.51,1.58.65,3.53-1.08,2-2.19-17.4-12.57-34.9-24.31-49.19-39.61-10.68-11.44-17.63-17.56-8.91-32.83,4.66-8.16,11.46-15.59,17.11-23.33,4.14,1.06,8.33,2,12.57,2.75,1.4.25,2.41-1.41,1-2.06-14-6.43-28.79-11.2-43.27-16.77q-4.85-1.86-9.65-3.78c-6.28-2.51-9.24-2.54-10.78-8.89-1.86-7.76,1.35-15.59,3.44-23.25,6.88-25,13.17-55.83,31.07-77.14,3.68-.87,7.37-1.77,11.06-2.62-2,22.25,3.8,45.31,10.06,66.73,6.68,22.84,14.51,45.66,23.4,68,7.78,19.46,18.4,37.49,30.5,55.25,9.26,13.61,21.38,31.71,40,37.17-3.62,4.09-7.56,7.62-11.89,9.62M546.1,757.13c-.57.24-1.16.44-1.74.67.8-15,1.39-30.13,2.63-45.06,2.58-31.18,5.74-62.32,8.78-93.46.13-1.38-2.6-1.72-2.85-.33-5.58,30.3-9.63,60.81-12.53,91.39C538.8,727,536.93,744,535.86,761,491,778,442.6,787.73,393.65,790.88c-13.27.84-26.57,1.2-39.88,1.17,4.09-3.14,7.17-7.38,10.47-11.17,8.6-9.86,16.88-19.91,24.7-30.23,2.58-3.4,5.05-6.87,7.53-10.33a1.68,1.68,0,0,0,1.32-1.3c0-.19,0-.38,0-.56a356.48,356.48,0,0,0,29.73-49.29c11.33-23.14,18.58-47.24,24.09-71.83,4.74-21.12,10.9-43.65,8.6-65.35.09-1.29.2-2.59.25-3.88,37.69,4.45,74.64,12,107.11,27.48,8.16,3.88,15.57,7.68,20.31,14.63,4.43,6.55,6.31,14,8.56,21.28A333.32,333.32,0,0,1,607,656.8c3.55,22.08,4,43.88,3.89,65.85a368.7,368.7,0,0,1-64.8,34.48"/><path d="M345.77,412.69c-11.53-1-20.11-5-20.81-15.42-.46-6.89,2.4-15.49,3.63-22.28,2.05-11.32,4.41-22.54,6.2-33.88.2-1.26-2.27-1.52-2.61-.3-5.19,18.5-13.25,39.38-14,58.43-.53,12.9,13.19,19.66,27.61,18.48,3.83-.31,3.83-4.71,0-5"/><path d="M386.88,442.08l-1.34-2.72-5.78.8c-22.64,3-45.29,5.53-68,7.94l-4,.42-1,4c-1.12,5.94-.48,12,5.34,15.29,10,5.78,29.07,4.43,40.22,2.71,10.08-1.55,28.8-5.58,34.48-13.91,2.91-4.27,2.2-9.6.07-14.49m-11.37,16.24c-7.83,5-19.1,7.48-28.67,8.46-8.52.88-20.15,1.5-28.11-1.61-6.56-2.56-7.8-7.53-7.49-12.83a394.72,394.72,0,0,0,69.89-9c1.91,5.48,1.17,10.68-5.62,15"/><path d="M287.43,312.56c-5.11-8.24-15-15.74-26.82-14.64-9.41.86-24.74,10-26.91,18.07-.31,1.16.83,2,2.16,1.82,7.52-1.11,12.73-6.91,19.31-9.93,12.64-5.8,20.16.81,30.12,6.49,1.38.79,2.83-.71,2.14-1.81"/><path d="M417.51,295c-11.1,1.33-20.82,10.85-25.61,18.73-.68,1.11.94,2.2,2.06,1.34,6-4.54,13-10,20.92-12,10.5-2.6,15.09,5.69,22.82,9.57,2,1,4.18-.64,3.72-2.43-2.22-8.58-13.08-16.56-23.91-15.25"/><path d="M510.82,638.27c.47-13.29-9.47-29.8-14.7-42.12a235.91,235.91,0,0,0-24.43-43.88c-.63-.9-2.18-.11-1.64.81,13.71,23.48,22.31,48.71,30.89,73.77,9.8,28.62-31.12,41.13-54.93,52.23-2.23,1-.73,4.21,1.75,3.51.85-.23,1.78-.51,2.7-.79,5.1,5.54,10.67,10.73,15.86,16.22,3,3.11,8.94,8.73,11.12,12.85,3.61,6.85-.06,12.09-3.86,17.9-10,15.28-26.45,26.5-41,38.51-1.35,1.1.44,3.2,2.05,2.25,19.14-11.37,40.85-26.18,48.91-45.55,6.62-15.91-14.95-33.67-29.25-43.36,21.87-7,55.8-22.2,56.52-42.35"/><path d="M271.65,340.75c-2.28-5.75-11.71-6.19-13.13-.22-4.07,5.13-3.75,13.22-3.17,18.88s5,16.07,12,7.77c5.38-6.36,7.25-19.08,4.31-26.43m-8.4.29c3.76-1.09,3.38,5.36,3.39,6.34,0,1.23-.05,2.46-.09,3.7-.44-.14-.89-.28-1.37-.47a9.91,9.91,0,0,1-4.27-3.31,18.63,18.63,0,0,1,2.34-6.26"/><path d="M420.93,340.75c-2.29-5.75-11.72-6.19-13.13-.22-4.08,5.13-3.75,13.22-3.17,18.88s5,16.07,12,7.77c5.38-6.36,7.24-19.08,4.31-26.43m-8.4.29c3.76-1.09,3.38,5.36,3.39,6.34,0,1.23-.05,2.46-.09,3.7-.44-.14-.89-.28-1.37-.47a9.85,9.85,0,0,1-4.27-3.31,18.42,18.42,0,0,1,2.34-6.26"/></g></g></g></svg>